<?xml version="1.0" standalone="no"?>
<!DOCTYPE svg PUBLIC "-//W3C//DTD SVG 1.1//EN" "http://www.w3.org/Graphics/SVG/1.1/DTD/svg11.dtd" >
<svg>
<metadata>
Created by FontForge 20090914 at Fri Feb 24 06:32:43 2012
 By root
&#194;&#169;2001 Michael Dennett (based on original PET character set.)
</metadata>
<defs>
<font id="CommodorePET" horiz-adv-x="600" >
  <font-face 
    font-family="Commodore PET"
    font-weight="400"
    font-stretch="normal"
    units-per-em="2048"
    panose-1="2 0 0 0 0 0 0 0 0 0"
    ascent="1638"
    descent="-410"
    x-height="1329"
    cap-height="1861"
    bbox="26 -261 10362 1861"
    underline-thickness="48"
    underline-position="-140"
    unicode-range="U+0020-U+F002"
  />
<missing-glyph horiz-adv-x="1624" 
d="M256 0v1280h1024v-1280h-1024zM288 32h960v1216h-960v-1216z" />
    <glyph glyph-name=".notdef" horiz-adv-x="1624" 
d="M256 0v1280h1024v-1280h-1024zM288 32h960v1216h-960v-1216z" />
    <glyph glyph-name=".null" 
 />
    <glyph glyph-name="nonmarkingreturn" 
 />
    <glyph glyph-name="space" unicode=" " horiz-adv-x="2190" 
 />
    <glyph glyph-name="exclam" unicode="!" horiz-adv-x="858" 
d="M80 1861v-258v0h258v7v-7v7v251v0h-258v0zM80 1596v-259v0h258v0v259v0h-258v0zM80 1330v-258v0h258v0v258v0h-258v0zM80 1065v-259v0h258v0v259v0h-258v0zM80 799v-258v0h258v7v-7v7v251v0h-258v0zM80 268v-258v0h258v0v258v0h-258v0z" />
    <glyph glyph-name="quotedbl" unicode="&#x22;" horiz-adv-x="1389" 
d="M80 1861v-258v0h258v7v-7v7v251v0h-258v0zM611 1861v-258v0h258v0v258v0h-258v0zM80 1596v-259v0h258v0v259v0h-258v0zM611 1596v-259v0h258v0v259v0h-258v0zM80 1330v-258v0h258v0v258v0h-258v0zM611 1330v-258v0h258v0v258v0h-258v0z" />
    <glyph glyph-name="numbersign" unicode="#" horiz-adv-x="2185" 
d="M345 1861v-258v0h259v7v-7v7v251v0h-259v0zM1141 1861v-258h7h-7h7h252v0v258v0h-259v0zM345 1596v-259v0h259v7v-7v7v252v0h-259v0zM1141 1596v-259v0h259v7v-7v7v252v0h-259v0zM80 1330v-258v0h258v0v258v0h-258v0zM345 1330v-258v0h259v0v258v0h-259v0zM611 1330v-258
v0h258v0v258v0h-258v0zM876 1330v-258v0h258v0v258v0h-258v0zM1141 1330v-258v0h259v0v258v0h-259v0zM1407 1330v-258v0h237h7h-7h7h14v0v258h-14h14h-14h-244v0zM345 1065v-259h7h-7h7h252v0v259v0h-259v0zM1141 1065v-259v0h259v0v259v0h-259v0zM80 799v-258v0h258v7v-7v7
v251v0h-258v0zM345 799v-258v0h259v0v258v0h-259v0zM611 799v-258v0h258v0v258v0h-258v0zM876 799v-258v0h258v0v258v0h-258v0zM1141 799v-258v0h259v7v-7v7v251v0h-259v0zM1407 799v-258v0h237h7h-7h7h14v7v-7v7v251h-14h14h-14h-244v0zM345 534v-259h7h-7h7h252v0v259v0
h-259v0zM1141 534v-259v0h259v7v-7v7v252v0h-259v0zM345 268v-258v0h259v0v258v0h-259v0zM1141 268v-258h7h-7h7h252v0v258v0h-259v0z" />
    <glyph glyph-name="dollar" unicode="$" horiz-adv-x="1920" 
d="M611 1861v-258v0h258v0v258v0h-258v0zM345 1596v-259v0h259v7v-7v7v252v0h-259v0zM611 1596v-259v0h258v0v259v0h-258v0zM876 1596v-259v0h258v7v-7v7v252v0h-258v0zM1141 1596v-259v0h259v7v-7v7v252v0h-259v0zM80 1330v-258v0h258v0v258v0h-258v0zM611 1330v-258v0h258
v0v258v0h-258v0zM345 1065v-259h7h-7h7h252v0v259v0h-259v0zM611 1065v-259v0h258v0v259v0h-258v0zM876 1065v-259v0h258v0v259v0h-258v0zM611 799v-258v0h258v0v258v0h-258v0zM1141 799v-258v0h259v7v-7v7v251v0h-259v0zM80 534v-259v0h258v0v259v0h-258v0zM345 534v-259h7
h-7h7h252v0v259v0h-259v0zM611 534v-259v0h258v7v-7v7v252v0h-258v0zM876 534v-259v0h258v0v259v0h-258v0zM611 268v-258v0h258v0v258v0h-258v0z" />
    <glyph glyph-name="percent" unicode="%" horiz-adv-x="2185" 
d="M80 1596v-259v0h258v0v259v0h-258v0zM345 1596v-259v0h259v7v-7v7v252v0h-259v0zM1407 1596v-259v0h237h7h-7h7h14v0v259h-14h14h-14h-244v0zM80 1330v-258v0h258v0v258v0h-258v0zM345 1330v-258v0h259v0v258v0h-259v0zM1141 1330v-258v0h259v0v258v0h-259v0zM876 1065
v-259v0h258v0v259v0h-258v0zM611 799v-258v0h258v0v258v0h-258v0zM345 534v-259h7h-7h7h252v0v259v0h-259v0zM1141 534v-259v0h259v7v-7v7v252v0h-259v0zM1407 534v-259h7h-7h7h230h7h-7h7h14v0v259h-14h14h-14h-244v0zM80 268v-258v0h258v0v258v0h-258v0zM1141 268v-258h7
h-7h7h252v0v258v0h-259v0zM1407 268v-258v0h237h7h-7h7h14v0v258h-14h14h-14h-244v0z" />
    <glyph glyph-name="ampersand" unicode="&#x26;" horiz-adv-x="2185" 
d="M345 1861v-258v0h259v7v-7v7v251v0h-259v0zM611 1861v-258v0h258v0v258v0h-258v0zM80 1596v-259v0h258v0v259v0h-258v0zM876 1596v-259v0h258v7v-7v7v252v0h-258v0zM80 1330v-258v0h258v0v258v0h-258v0zM876 1330v-258v0h258v0v258v0h-258v0zM345 1065v-259h7h-7h7h252v0
v259v0h-259v0zM611 1065v-259v0h258v0v259v0h-258v0zM80 799v-258v0h258v7v-7v7v251v0h-258v0zM876 799v-258v0h258v0v258v0h-258v0zM1407 799v-258v0h237h7h-7h7h14v7v-7v7v251h-14h14h-14h-244v0zM80 534v-259v0h258v0v259v0h-258v0zM1141 534v-259v0h259v7v-7v7v252v0
h-259v0zM345 268v-258v0h259v0v258v0h-259v0zM611 268v-258v0h258v0v258v0h-258v0zM876 268v-258v0h258v0v258v0h-258v0zM1407 268v-258v0h237h7h-7h7h14v0v258h-14h14h-14h-244v0z" />
    <glyph glyph-name="quotesingle" unicode="'" horiz-adv-x="1389" 
d="M611 1861v-258v0h258v0v258v0h-258v0zM345 1596v-259v0h259v7v-7v7v252v0h-259v0zM80 1330v-258v0h258v0v258v0h-258v0z" />
    <glyph glyph-name="parenleft" unicode="(" horiz-adv-x="1389" 
d="M611 1861v-258v0h258v0v258v0h-258v0zM345 1596v-259v0h259v7v-7v7v252v0h-259v0zM80 1330v-258v0h258v0v258v0h-258v0zM80 1065v-259v0h258v0v259v0h-258v0zM80 799v-258v0h258v7v-7v7v251v0h-258v0zM345 534v-259h7h-7h7h252v0v259v0h-259v0zM611 268v-258v0h258v0v258
v0h-258v0z" />
    <glyph glyph-name="parenright" unicode=")" horiz-adv-x="1389" 
d="M337 1861v-258v0h-258v0v258v0h258v0zM603 1596v-259v0h-259v7v-7v7v252v0h259v0zM868 1330v-258v0h-258v0v258v0h258v0zM868 1065v-259v0h-258v0v259v0h258v0zM868 799v-258v0h-258v7v-7v7v251v0h258v0zM603 534v-259h-7h7h-7h-252v0v259v0h259v0zM337 268v-258v0h-258
v0v258v0h258v0z" />
    <glyph glyph-name="asterisk" unicode="*" horiz-adv-x="1920" 
d="M611 1861v-258v0h258v0v258v0h-258v0zM80 1596v-259v0h258v0v259v0h-258v0zM611 1596v-259v0h258v0v259v0h-258v0zM1141 1596v-259v0h259v7v-7v7v252v0h-259v0zM345 1330v-258v0h259v0v258v0h-259v0zM611 1330v-258v0h258v0v258v0h-258v0zM876 1330v-258v0h258v0v258v0
h-258v0zM80 1065v-259v0h258v0v259v0h-258v0zM345 1065v-259h7h-7h7h252v0v259v0h-259v0zM611 1065v-259v0h258v0v259v0h-258v0zM876 1065v-259v0h258v0v259v0h-258v0zM1141 1065v-259v0h259v0v259v0h-259v0zM345 799v-258v0h259v0v258v0h-259v0zM611 799v-258v0h258v0v258
v0h-258v0zM876 799v-258v0h258v0v258v0h-258v0zM80 534v-259v0h258v0v259v0h-258v0zM611 534v-259v0h258v7v-7v7v252v0h-258v0zM1141 534v-259v0h259v7v-7v7v252v0h-259v0zM611 268v-258v0h258v0v258v0h-258v0z" />
    <glyph glyph-name="plus" unicode="+" horiz-adv-x="1920" 
d="M611 1596v-259v0h258v0v259v0h-258v0zM611 1330v-258v0h258v0v258v0h-258v0zM80 1065v-259v0h258v0v259v0h-258v0zM345 1065v-259h7h-7h7h252v0v259v0h-259v0zM611 1065v-259v0h258v0v259v0h-258v0zM876 1065v-259v0h258v0v259v0h-258v0zM1141 1065v-259v0h259v0v259v0
h-259v0zM611 799v-258v0h258v0v258v0h-258v0zM611 534v-259v0h258v7v-7v7v252v0h-258v0z" />
    <glyph glyph-name="comma" unicode="," horiz-adv-x="1123" 
d="M402 529v-259h7h-7h7h230h7h-7h7h14v0v259h-14h14h-14h-244v0zM402 263v-258v0h237h7h-7h7h14v0v258h-14h14h-14h-244v0zM402 263v-258v0h237h7h-7h7h14v0v258h-14h14h-14h-244v0zM402 263v-258v0h237h7h-7h7h14v0v258h-14h14h-14h-244v0zM402 263v-258v0h237h7h-7h7h14
v0v258h-14h14h-14h-244v0zM137 -3v-258v0h258v0v258v0h-258v0z" />
    <glyph glyph-name="hyphen" unicode="-" horiz-adv-x="2185" 
d="M80 1065v-259v0h258v0v259v0h-258v0zM345 1065v-259h7h-7h7h252v0v259v0h-259v0zM611 1065v-259v0h258v0v259v0h-258v0zM876 1065v-259v0h258v0v259v0h-258v0zM1141 1065v-259v0h259v0v259v0h-259v0zM1407 1065v-259v0h237h7h-7h7h14v0v259h-14h14h-14h-244v0z" />
    <glyph glyph-name="hyphen" unicode="&#x2010;" horiz-adv-x="2185" 
d="M80 1065v-259v0h258v0v259v0h-258v0zM345 1065v-259h7h-7h7h252v0v259v0h-259v0zM611 1065v-259v0h258v0v259v0h-258v0zM876 1065v-259v0h258v0v259v0h-258v0zM1141 1065v-259v0h259v0v259v0h-259v0zM1407 1065v-259v0h237h7h-7h7h14v0v259h-14h14h-14h-244v0z" />
    <glyph glyph-name="period" unicode="." horiz-adv-x="1124" 
d="M80 534v-259v0h258v0v259v0h-258v0zM345 534v-259h7h-7h7h252v0v259v0h-259v0zM80 268v-258v0h258v0v258v0h-258v0zM345 268v-258v0h259v0v258v0h-259v0z" />
    <glyph glyph-name="slash" unicode="/" horiz-adv-x="2185" 
d="M1407 1596v-259v0h237h7h-7h7h14v0v259h-14h14h-14h-244v0zM1141 1330v-258v0h259v0v258v0h-259v0zM876 1065v-259v0h258v0v259v0h-258v0zM611 799v-258v0h258v0v258v0h-258v0zM345 534v-259h7h-7h7h252v0v259v0h-259v0zM80 268v-258v0h258v0v258v0h-258v0z" />
    <glyph glyph-name="zero" unicode="0" horiz-adv-x="2185" 
d="M345 1861v-258v0h259v7v-7v7v251v0h-259v0zM611 1861v-258v0h258v0v258v0h-258v0zM876 1861v-258h7h-7h7h251v0v258v0h-258v0zM1141 1861v-258h7h-7h7h252v0v258v0h-259v0zM80 1596v-259v0h258v0v259v0h-258v0zM1407 1596v-259v0h237h7h-7h7h14v0v259h-14h14h-14h-244v0z
M80 1330v-258v0h258v0v258v0h-258v0zM1141 1330v-258v0h259v0v258v0h-259v0zM1407 1330v-258v0h237h7h-7h7h14v0v258h-14h14h-14h-244v0zM80 1065v-259v0h258v0v259v0h-258v0zM611 1065v-259v0h258v0v259v0h-258v0zM876 1065v-259v0h258v0v259v0h-258v0zM1407 1065v-259v0
h237h7h-7h7h14v0v259h-14h14h-14h-244v0zM80 799v-258v0h258v7v-7v7v251v0h-258v0zM345 799v-258v0h259v0v258v0h-259v0zM1407 799v-258v0h237h7h-7h7h14v7v-7v7v251h-14h14h-14h-244v0zM80 534v-259v0h258v0v259v0h-258v0zM1407 534v-259h7h-7h7h230h7h-7h7h14v0v259h-14
h14h-14h-244v0zM345 268v-258v0h259v0v258v0h-259v0zM611 268v-258v0h258v0v258v0h-258v0zM876 268v-258v0h258v0v258v0h-258v0zM1141 268v-258h7h-7h7h252v0v258v0h-259v0z" />
    <glyph glyph-name="one" unicode="1" horiz-adv-x="1920" 
d="M611 1861v-258v0h258v0v258v0h-258v0zM345 1596v-259v0h259v7v-7v7v252v0h-259v0zM611 1596v-259v0h258v0v259v0h-258v0zM80 1330v-258v0h258v0v258v0h-258v0zM611 1330v-258v0h258v0v258v0h-258v0zM611 1065v-259v0h258v0v259v0h-258v0zM611 799v-258v0h258v0v258v0
h-258v0zM611 534v-259v0h258v7v-7v7v252v0h-258v0zM80 268v-258v0h258v0v258v0h-258v0zM345 268v-258v0h259v0v258v0h-259v0zM611 268v-258v0h258v0v258v0h-258v0zM876 268v-258v0h258v0v258v0h-258v0zM1141 268v-258h7h-7h7h252v0v258v0h-259v0z" />
    <glyph glyph-name="two" unicode="2" horiz-adv-x="2185" 
d="M345 1861v-258v0h259v7v-7v7v251v0h-259v0zM611 1861v-258v0h258v0v258v0h-258v0zM876 1861v-258h7h-7h7h251v0v258v0h-258v0zM1141 1861v-258h7h-7h7h252v0v258v0h-259v0zM80 1596v-259v0h258v0v259v0h-258v0zM1407 1596v-259v0h237h7h-7h7h14v0v259h-14h14h-14h-244v0z
M1407 1330v-258v0h237h7h-7h7h14v0v258h-14h14h-14h-244v0zM876 1065v-259v0h258v0v259v0h-258v0zM1141 1065v-259v0h259v0v259v0h-259v0zM345 799v-258v0h259v0v258v0h-259v0zM611 799v-258v0h258v0v258v0h-258v0zM876 799v-258v0h258v0v258v0h-258v0zM80 534v-259v0h258v0
v259v0h-258v0zM80 268v-258v0h258v0v258v0h-258v0zM345 268v-258v0h259v0v258v0h-259v0zM611 268v-258v0h258v0v258v0h-258v0zM876 268v-258v0h258v0v258v0h-258v0zM1141 268v-258h7h-7h7h252v0v258v0h-259v0zM1407 268v-258v0h237h7h-7h7h14v0v258h-14h14h-14h-244v0z" />
    <glyph glyph-name="three" unicode="3" horiz-adv-x="2185" 
d="M345 1861v-258v0h259v7v-7v7v251v0h-259v0zM611 1861v-258v0h258v0v258v0h-258v0zM876 1861v-258h7h-7h7h251v0v258v0h-258v0zM1141 1861v-258h7h-7h7h252v0v258v0h-259v0zM80 1596v-259v0h258v0v259v0h-258v0zM1407 1596v-259v0h237h7h-7h7h14v0v259h-14h14h-14h-244v0z
M1407 1330v-258v0h237h7h-7h7h14v0v258h-14h14h-14h-244v0zM611 1065v-259v0h258v0v259v0h-258v0zM876 1065v-259v0h258v0v259v0h-258v0zM1141 1065v-259v0h259v0v259v0h-259v0zM1407 799v-258v0h237h7h-7h7h14v7v-7v7v251h-14h14h-14h-244v0zM80 534v-259v0h258v0v259v0
h-258v0zM1407 534v-259h7h-7h7h230h7h-7h7h14v0v259h-14h14h-14h-244v0zM345 268v-258v0h259v0v258v0h-259v0zM611 268v-258v0h258v0v258v0h-258v0zM876 268v-258v0h258v0v258v0h-258v0zM1141 268v-258h7h-7h7h252v0v258v0h-259v0z" />
    <glyph glyph-name="four" unicode="4" horiz-adv-x="2185" 
d="M1141 1861v-258h7h-7h7h252v0v258v0h-259v0zM876 1596v-259v0h258v7v-7v7v252v0h-258v0zM1141 1596v-259v0h259v7v-7v7v252v0h-259v0zM611 1330v-258v0h258v0v258v0h-258v0zM1141 1330v-258v0h259v0v258v0h-259v0zM345 1065v-259h7h-7h7h252v0v259v0h-259v0zM1141 1065
v-259v0h259v0v259v0h-259v0zM80 799v-258v0h258v7v-7v7v251v0h-258v0zM345 799v-258v0h259v0v258v0h-259v0zM611 799v-258v0h258v0v258v0h-258v0zM876 799v-258v0h258v0v258v0h-258v0zM1141 799v-258v0h259v7v-7v7v251v0h-259v0zM1407 799v-258v0h237h7h-7h7h14v7v-7v7v251
h-14h14h-14h-244v0zM1141 534v-259v0h259v7v-7v7v252v0h-259v0zM1141 268v-258h7h-7h7h252v0v258v0h-259v0z" />
    <glyph glyph-name="five" unicode="5" horiz-adv-x="2185" 
d="M80 1861v-258v0h258v7v-7v7v251v0h-258v0zM345 1861v-258v0h259v7v-7v7v251v0h-259v0zM611 1861v-258v0h258v0v258v0h-258v0zM876 1861v-258h7h-7h7h251v0v258v0h-258v0zM1141 1861v-258h7h-7h7h252v0v258v0h-259v0zM1407 1861v-258h7h-7h7h230h7h-7h7h14v0v258h-14h14
h-14h-244v0zM80 1596v-259v0h258v0v259v0h-258v0zM80 1330v-258v0h258v0v258v0h-258v0zM345 1330v-258v0h259v0v258v0h-259v0zM611 1330v-258v0h258v0v258v0h-258v0zM876 1330v-258v0h258v0v258v0h-258v0zM1141 1065v-259v0h259v0v259v0h-259v0zM1407 799v-258v0h237h7h-7h7
h14v7v-7v7v251h-14h14h-14h-244v0zM80 534v-259v0h258v0v259v0h-258v0zM1141 534v-259v0h259v7v-7v7v252v0h-259v0zM345 268v-258v0h259v0v258v0h-259v0zM611 268v-258v0h258v0v258v0h-258v0zM876 268v-258v0h258v0v258v0h-258v0z" />
    <glyph glyph-name="six" unicode="6" horiz-adv-x="2185" 
d="M611 1861v-258v0h258v0v258v0h-258v0zM876 1861v-258h7h-7h7h251v0v258v0h-258v0zM1141 1861v-258h7h-7h7h252v0v258v0h-259v0zM345 1596v-259v0h259v7v-7v7v252v0h-259v0zM80 1330v-258v0h258v0v258v0h-258v0zM80 1065v-259v0h258v0v259v0h-258v0zM345 1065v-259h7h-7h7
h252v0v259v0h-259v0zM611 1065v-259v0h258v0v259v0h-258v0zM876 1065v-259v0h258v0v259v0h-258v0zM1141 1065v-259v0h259v0v259v0h-259v0zM80 799v-258v0h258v7v-7v7v251v0h-258v0zM1407 799v-258v0h237h7h-7h7h14v7v-7v7v251h-14h14h-14h-244v0zM80 534v-259v0h258v0v259v0
h-258v0zM1407 534v-259h7h-7h7h230h7h-7h7h14v0v259h-14h14h-14h-244v0zM345 268v-258v0h259v0v258v0h-259v0zM611 268v-258v0h258v0v258v0h-258v0zM876 268v-258v0h258v0v258v0h-258v0zM1141 268v-258h7h-7h7h252v0v258v0h-259v0z" />
    <glyph glyph-name="seven" unicode="7" horiz-adv-x="2185" 
d="M80 1861v-258v0h258v7v-7v7v251v0h-258v0zM345 1861v-258v0h259v7v-7v7v251v0h-259v0zM611 1861v-258v0h258v0v258v0h-258v0zM876 1861v-258h7h-7h7h251v0v258v0h-258v0zM1141 1861v-258h7h-7h7h252v0v258v0h-259v0zM1407 1861v-258h7h-7h7h230h7h-7h7h14v0v258h-14h14
h-14h-244v0zM80 1596v-259v0h258v0v259v0h-258v0zM1407 1596v-259v0h237h7h-7h7h14v0v259h-14h14h-14h-244v0zM1141 1330v-258v0h259v0v258v0h-259v0zM876 1065v-259v0h258v0v259v0h-258v0zM611 799v-258v0h258v0v258v0h-258v0zM611 534v-259v0h258v7v-7v7v252v0h-258v0z
M611 268v-258v0h258v0v258v0h-258v0z" />
    <glyph glyph-name="eight" unicode="8" horiz-adv-x="2185" 
d="M345 1861v-258v0h259v7v-7v7v251v0h-259v0zM611 1861v-258v0h258v0v258v0h-258v0zM876 1861v-258h7h-7h7h251v0v258v0h-258v0zM1141 1861v-258h7h-7h7h252v0v258v0h-259v0zM80 1596v-259v0h258v0v259v0h-258v0zM1407 1596v-259v0h237h7h-7h7h14v0v259h-14h14h-14h-244v0z
M80 1330v-258v0h258v0v258v0h-258v0zM1407 1330v-258v0h237h7h-7h7h14v0v258h-14h14h-14h-244v0zM345 1065v-259h7h-7h7h252v0v259v0h-259v0zM611 1065v-259v0h258v0v259v0h-258v0zM876 1065v-259v0h258v0v259v0h-258v0zM1141 1065v-259v0h259v0v259v0h-259v0zM80 799v-258
v0h258v7v-7v7v251v0h-258v0zM1407 799v-258v0h237h7h-7h7h14v7v-7v7v251h-14h14h-14h-244v0zM80 534v-259v0h258v0v259v0h-258v0zM1407 534v-259h7h-7h7h230h7h-7h7h14v0v259h-14h14h-14h-244v0zM345 268v-258v0h259v0v258v0h-259v0zM611 268v-258v0h258v0v258v0h-258v0z
M876 268v-258v0h258v0v258v0h-258v0zM1141 268v-258h7h-7h7h252v0v258v0h-259v0z" />
    <glyph glyph-name="nine" unicode="9" horiz-adv-x="2185" 
d="M345 1861v-258v0h259v7v-7v7v251v0h-259v0zM611 1861v-258v0h258v0v258v0h-258v0zM876 1861v-258h7h-7h7h251v0v258v0h-258v0zM1141 1861v-258h7h-7h7h252v0v258v0h-259v0zM80 1596v-259v0h258v0v259v0h-258v0zM1407 1596v-259v0h237h7h-7h7h14v0v259h-14h14h-14h-244v0z
M80 1330v-258v0h258v0v258v0h-258v0zM1407 1330v-258v0h237h7h-7h7h14v0v258h-14h14h-14h-244v0zM345 1065v-259h7h-7h7h252v0v259v0h-259v0zM611 1065v-259v0h258v0v259v0h-258v0zM876 1065v-259v0h258v0v259v0h-258v0zM1141 1065v-259v0h259v0v259v0h-259v0zM1407 1065
v-259v0h237h7h-7h7h14v0v259h-14h14h-14h-244v0zM1407 799v-258v0h237h7h-7h7h14v7v-7v7v251h-14h14h-14h-244v0zM1141 534v-259v0h259v7v-7v7v252v0h-259v0zM345 268v-258v0h259v0v258v0h-259v0zM611 268v-258v0h258v0v258v0h-258v0zM876 268v-258v0h258v0v258v0h-258v0z
" />
    <glyph glyph-name="colon" unicode=":" horiz-adv-x="1306" 
d="M345 1330v-258v0h259v0v258v0h-259v0zM345 534v-259h7h-7h7h252v0v259v0h-259v0z" />
    <glyph glyph-name="semicolon" unicode=";" horiz-adv-x="1123" 
d="M402 1060v-259v0h237h7h-7h7h14v0v259h-14h14h-14h-244v0zM402 529v-259h7h-7h7h230h7h-7h7h14v0v259h-14h14h-14h-244v0zM402 263v-258v0h237h7h-7h7h14v0v258h-14h14h-14h-244v0zM402 263v-258v0h237h7h-7h7h14v0v258h-14h14h-14h-244v0zM402 263v-258v0h237h7h-7h7h14
v0v258h-14h14h-14h-244v0zM402 263v-258v0h237h7h-7h7h14v0v258h-14h14h-14h-244v0zM137 -3v-258v0h258v0v258v0h-258v0z" />
    <glyph glyph-name="less" unicode="&#x3c;" horiz-adv-x="2185" 
d="M1664 1861v-258v0h-258v7v-7v7v251v0h258v0zM1399 1861v-258v0h-259v7v-7v7v251v0h259v0zM1133 1861v-258v0h-258v0v258v0h258v0zM1133 1596v-259v0h-258v0v259v0h258v0zM868 1596v-259v0h-258v7v-7v7v252v0h258v0zM868 1330v-258v0h-258v0v258v0h258v0zM603 1330v-258v0
h-259v0v258v0h259v0zM603 1065v-259v0h-259v0v259v0h259v0zM337 1065v-259v0h-237h-7h7h-7h-14v0v259h14h-14h14h244v0zM868 799v-258v0h-258v0v258v0h258v0zM603 799v-258v0h-259v7v-7v7v251v0h259v0zM1133 534v-259v0h-258v7v-7v7v252v0h258v0zM868 534v-259v0h-258v0v259
v0h258v0zM1664 268v-258v0h-258v0v258v0h258v0zM1399 268v-258v0h-259v0v258v0h259v0zM1133 268v-258v0h-258v0v258v0h258v0z" />
    <glyph glyph-name="equal" unicode="=" horiz-adv-x="2185" 
d="M80 1330v-258v0h258v0v258v0h-258v0zM345 1330v-258v0h259v0v258v0h-259v0zM611 1330v-258v0h258v0v258v0h-258v0zM876 1330v-258v0h258v0v258v0h-258v0zM1141 1330v-258v0h259v0v258v0h-259v0zM1407 1330v-258v0h237h7h-7h7h14v0v258h-14h14h-14h-244v0zM80 799v-258v0
h258v7v-7v7v251v0h-258v0zM345 799v-258v0h259v0v258v0h-259v0zM611 799v-258v0h258v0v258v0h-258v0zM876 799v-258v0h258v0v258v0h-258v0zM1141 799v-258v0h259v7v-7v7v251v0h-259v0zM1407 799v-258v0h237h7h-7h7h14v7v-7v7v251h-14h14h-14h-244v0z" />
    <glyph glyph-name="greater" unicode="&#x3e;" horiz-adv-x="2185" 
d="M80 1861v-258v0h258v7v-7v7v251v0h-258v0zM345 1861v-258v0h259v7v-7v7v251v0h-259v0zM611 1861v-258v0h258v0v258v0h-258v0zM611 1596v-259v0h258v0v259v0h-258v0zM876 1596v-259v0h258v7v-7v7v252v0h-258v0zM876 1330v-258v0h258v0v258v0h-258v0zM1141 1330v-258v0h259
v0v258v0h-259v0zM1141 1065v-259v0h259v0v259v0h-259v0zM1407 1065v-259v0h237h7h-7h7h14v0v259h-14h14h-14h-244v0zM876 799v-258v0h258v0v258v0h-258v0zM1141 799v-258v0h259v7v-7v7v251v0h-259v0zM611 534v-259v0h258v7v-7v7v252v0h-258v0zM876 534v-259v0h258v0v259v0
h-258v0zM80 268v-258v0h258v0v258v0h-258v0zM345 268v-258v0h259v0v258v0h-259v0zM611 268v-258v0h258v0v258v0h-258v0z" />
    <glyph glyph-name="question" unicode="?" horiz-adv-x="1920" 
d="M345 1861v-258v0h259v7v-7v7v251v0h-259v0zM611 1861v-258v0h258v0v258v0h-258v0zM876 1861v-258h7h-7h7h251v0v258v0h-258v0zM80 1596v-259v0h258v0v259v0h-258v0zM1141 1596v-259v0h259v7v-7v7v252v0h-259v0zM1141 1330v-258v0h259v0v258v0h-259v0zM611 1065v-259v0
h258v0v259v0h-258v0zM876 1065v-259v0h258v0v259v0h-258v0zM345 799v-258v0h259v0v258v0h-259v0zM345 268v-258v0h259v0v258v0h-259v0z" />
    <glyph glyph-name="at" unicode="@" horiz-adv-x="2185" 
d="M611 1861v-258v0h258v0v258v0h-258v0zM876 1861v-258h7h-7h7h251v0v258v0h-258v0zM1141 1861v-258h7h-7h7h252v0v258v0h-259v0zM345 1596v-259v0h259v7v-7v7v252v0h-259v0zM1407 1596v-259v0h237h7h-7h7h14v0v259h-14h14h-14h-244v0zM80 1330v-258v0h258v0v258v0h-258v0z
M876 1330v-258v0h258v0v258v0h-258v0zM1407 1330v-258v0h237h7h-7h7h14v0v258h-14h14h-14h-244v0zM80 1065v-259v0h258v0v259v0h-258v0zM611 1065v-259v0h258v0v259v0h-258v0zM1141 1065v-259v0h259v0v259v0h-259v0zM1407 1065v-259v0h237h7h-7h7h14v0v259h-14h14h-14h-244
v0zM80 799v-258v0h258v7v-7v7v251v0h-258v0zM876 799v-258v0h258v0v258v0h-258v0zM1141 799v-258v0h259v7v-7v7v251v0h-259v0zM345 534v-259h7h-7h7h252v0v259v0h-259v0zM611 268v-258v0h258v0v258v0h-258v0zM876 268v-258v0h258v0v258v0h-258v0zM1141 268v-258h7h-7h7h252
v0v258v0h-259v0zM1407 268v-258v0h237h7h-7h7h14v0v258h-14h14h-14h-244v0z" />
    <glyph glyph-name="A" unicode="A" horiz-adv-x="2185" 
d="M611 1861v-258v0h258v0v258v0h-258v0zM876 1861v-258h7h-7h7h251v0v258v0h-258v0zM345 1596v-259v0h259v7v-7v7v252v0h-259v0zM1141 1596v-259v0h259v7v-7v7v252v0h-259v0zM80 1330v-258v0h258v0v258v0h-258v0zM1407 1330v-258v0h237h7h-7h7h14v0v258h-14h14h-14h-244v0z
M80 1065v-259v0h258v0v259v0h-258v0zM345 1065v-259h7h-7h7h252v0v259v0h-259v0zM611 1065v-259v0h258v0v259v0h-258v0zM876 1065v-259v0h258v0v259v0h-258v0zM1141 1065v-259v0h259v0v259v0h-259v0zM1407 1065v-259v0h237h7h-7h7h14v0v259h-14h14h-14h-244v0zM80 799v-258
v0h258v7v-7v7v251v0h-258v0zM1407 799v-258v0h237h7h-7h7h14v7v-7v7v251h-14h14h-14h-244v0zM80 534v-259v0h258v0v259v0h-258v0zM1407 534v-259h7h-7h7h230h7h-7h7h14v0v259h-14h14h-14h-244v0zM80 268v-258v0h258v0v258v0h-258v0zM1407 268v-258v0h237h7h-7h7h14v0v258
h-14h14h-14h-244v0z" />
    <glyph glyph-name="B" unicode="B" horiz-adv-x="2185" 
d="M80 1861v-258v0h258v7v-7v7v251v0h-258v0zM345 1861v-258v0h259v7v-7v7v251v0h-259v0zM611 1861v-258v0h258v0v258v0h-258v0zM876 1861v-258h7h-7h7h251v0v258v0h-258v0zM1141 1861v-258h7h-7h7h252v0v258v0h-259v0zM345 1596v-259v0h259v7v-7v7v252v0h-259v0zM1407 1596
v-259v0h237h7h-7h7h14v0v259h-14h14h-14h-244v0zM345 1330v-258v0h259v0v258v0h-259v0zM1407 1330v-258v0h237h7h-7h7h14v0v258h-14h14h-14h-244v0zM345 1065v-259h7h-7h7h252v0v259v0h-259v0zM611 1065v-259v0h258v0v259v0h-258v0zM876 1065v-259v0h258v0v259v0h-258v0z
M1141 1065v-259v0h259v0v259v0h-259v0zM345 799v-258v0h259v0v258v0h-259v0zM1407 799v-258v0h237h7h-7h7h14v7v-7v7v251h-14h14h-14h-244v0zM345 534v-259h7h-7h7h252v0v259v0h-259v0zM1407 534v-259h7h-7h7h230h7h-7h7h14v0v259h-14h14h-14h-244v0zM80 268v-258v0h258v0
v258v0h-258v0zM345 268v-258v0h259v0v258v0h-259v0zM611 268v-258v0h258v0v258v0h-258v0zM876 268v-258v0h258v0v258v0h-258v0zM1141 268v-258h7h-7h7h252v0v258v0h-259v0z" />
    <glyph glyph-name="C" unicode="C" horiz-adv-x="2185" 
d="M611 1861v-258v0h258v0v258v0h-258v0zM876 1861v-258h7h-7h7h251v0v258v0h-258v0zM1141 1861v-258h7h-7h7h252v0v258v0h-259v0zM345 1596v-259v0h259v7v-7v7v252v0h-259v0zM1407 1596v-259v0h237h7h-7h7h14v0v259h-14h14h-14h-244v0zM80 1330v-258v0h258v0v258v0h-258v0z
M80 1065v-259v0h258v0v259v0h-258v0zM80 799v-258v0h258v7v-7v7v251v0h-258v0zM345 534v-259h7h-7h7h252v0v259v0h-259v0zM1407 534v-259h7h-7h7h230h7h-7h7h14v0v259h-14h14h-14h-244v0zM611 268v-258v0h258v0v258v0h-258v0zM876 268v-258v0h258v0v258v0h-258v0zM1141 268
v-258h7h-7h7h252v0v258v0h-259v0z" />
    <glyph glyph-name="D" unicode="D" horiz-adv-x="2185" 
d="M80 1861v-258v0h258v7v-7v7v251v0h-258v0zM345 1861v-258v0h259v7v-7v7v251v0h-259v0zM611 1861v-258v0h258v0v258v0h-258v0zM876 1861v-258h7h-7h7h251v0v258v0h-258v0zM345 1596v-259v0h259v7v-7v7v252v0h-259v0zM1141 1596v-259v0h259v7v-7v7v252v0h-259v0zM345 1330
v-258v0h259v0v258v0h-259v0zM1407 1330v-258v0h237h7h-7h7h14v0v258h-14h14h-14h-244v0zM345 1065v-259h7h-7h7h252v0v259v0h-259v0zM1407 1065v-259v0h237h7h-7h7h14v0v259h-14h14h-14h-244v0zM345 799v-258v0h259v0v258v0h-259v0zM1407 799v-258v0h237h7h-7h7h14v7v-7v7
v251h-14h14h-14h-244v0zM345 534v-259h7h-7h7h252v0v259v0h-259v0zM1141 534v-259v0h259v7v-7v7v252v0h-259v0zM80 268v-258v0h258v0v258v0h-258v0zM345 268v-258v0h259v0v258v0h-259v0zM611 268v-258v0h258v0v258v0h-258v0zM876 268v-258v0h258v0v258v0h-258v0z" />
    <glyph glyph-name="E" unicode="E" horiz-adv-x="2185" 
d="M80 1861v-258v0h258v7v-7v7v251v0h-258v0zM345 1861v-258v0h259v7v-7v7v251v0h-259v0zM611 1861v-258v0h258v0v258v0h-258v0zM876 1861v-258h7h-7h7h251v0v258v0h-258v0zM1141 1861v-258h7h-7h7h252v0v258v0h-259v0zM1407 1861v-258h7h-7h7h230h7h-7h7h14v0v258h-14h14
h-14h-244v0zM80 1596v-259v0h258v0v259v0h-258v0zM80 1330v-258v0h258v0v258v0h-258v0zM80 1065v-259v0h258v0v259v0h-258v0zM345 1065v-259h7h-7h7h252v0v259v0h-259v0zM611 1065v-259v0h258v0v259v0h-258v0zM876 1065v-259v0h258v0v259v0h-258v0zM80 799v-258v0h258v7v-7
v7v251v0h-258v0zM80 534v-259v0h258v0v259v0h-258v0zM80 268v-258v0h258v0v258v0h-258v0zM345 268v-258v0h259v0v258v0h-259v0zM611 268v-258v0h258v0v258v0h-258v0zM876 268v-258v0h258v0v258v0h-258v0zM1141 268v-258h7h-7h7h252v0v258v0h-259v0zM1407 268v-258v0h237h7
h-7h7h14v0v258h-14h14h-14h-244v0z" />
    <glyph glyph-name="F" unicode="F" horiz-adv-x="2185" 
d="M80 1861v-258v0h258v7v-7v7v251v0h-258v0zM345 1861v-258v0h259v7v-7v7v251v0h-259v0zM611 1861v-258v0h258v0v258v0h-258v0zM876 1861v-258h7h-7h7h251v0v258v0h-258v0zM1141 1861v-258h7h-7h7h252v0v258v0h-259v0zM1407 1861v-258h7h-7h7h230h7h-7h7h14v0v258h-14h14
h-14h-244v0zM80 1596v-259v0h258v0v259v0h-258v0zM80 1330v-258v0h258v0v258v0h-258v0zM80 1065v-259v0h258v0v259v0h-258v0zM345 1065v-259h7h-7h7h252v0v259v0h-259v0zM611 1065v-259v0h258v0v259v0h-258v0zM876 1065v-259v0h258v0v259v0h-258v0zM80 799v-258v0h258v7v-7
v7v251v0h-258v0zM80 534v-259v0h258v0v259v0h-258v0zM80 268v-258v0h258v0v258v0h-258v0z" />
    <glyph glyph-name="G" unicode="G" horiz-adv-x="2185" 
d="M611 1861v-258v0h258v0v258v0h-258v0zM876 1861v-258h7h-7h7h251v0v258v0h-258v0zM1141 1861v-258h7h-7h7h252v0v258v0h-259v0zM345 1596v-259v0h259v7v-7v7v252v0h-259v0zM1407 1596v-259v0h237h7h-7h7h14v0v259h-14h14h-14h-244v0zM80 1330v-258v0h258v0v258v0h-258v0z
M80 1065v-259v0h258v0v259v0h-258v0zM876 1065v-259v0h258v0v259v0h-258v0zM1141 1065v-259v0h259v0v259v0h-259v0zM1407 1065v-259v0h237h7h-7h7h14v0v259h-14h14h-14h-244v0zM80 799v-258v0h258v7v-7v7v251v0h-258v0zM1407 799v-258v0h237h7h-7h7h14v7v-7v7v251h-14h14
h-14h-244v0zM345 534v-259h7h-7h7h252v0v259v0h-259v0zM1407 534v-259h7h-7h7h230h7h-7h7h14v0v259h-14h14h-14h-244v0zM611 268v-258v0h258v0v258v0h-258v0zM876 268v-258v0h258v0v258v0h-258v0zM1141 268v-258h7h-7h7h252v0v258v0h-259v0z" />
    <glyph glyph-name="H" unicode="H" horiz-adv-x="2185" 
d="M80 1861v-258v0h258v7v-7v7v251v0h-258v0zM1407 1861v-258h7h-7h7h230h7h-7h7h14v0v258h-14h14h-14h-244v0zM80 1596v-259v0h258v0v259v0h-258v0zM1407 1596v-259v0h237h7h-7h7h14v0v259h-14h14h-14h-244v0zM80 1330v-258v0h258v0v258v0h-258v0zM1407 1330v-258v0h237h7
h-7h7h14v0v258h-14h14h-14h-244v0zM80 1065v-259v0h258v0v259v0h-258v0zM345 1065v-259h7h-7h7h252v0v259v0h-259v0zM611 1065v-259v0h258v0v259v0h-258v0zM876 1065v-259v0h258v0v259v0h-258v0zM1141 1065v-259v0h259v0v259v0h-259v0zM1407 1065v-259v0h237h7h-7h7h14v0
v259h-14h14h-14h-244v0zM80 799v-258v0h258v7v-7v7v251v0h-258v0zM1407 799v-258v0h237h7h-7h7h14v7v-7v7v251h-14h14h-14h-244v0zM80 534v-259v0h258v0v259v0h-258v0zM1407 534v-259h7h-7h7h230h7h-7h7h14v0v259h-14h14h-14h-244v0zM80 268v-258v0h258v0v258v0h-258v0z
M1407 268v-258v0h237h7h-7h7h14v0v258h-14h14h-14h-244v0z" />
    <glyph glyph-name="I" unicode="I" horiz-adv-x="1606" 
d="M611 1861v-258v0h258v0v258v0h-258v0zM876 1861v-258h7h-7h7h251v0v258v0h-258v0zM1141 1861v-258h7h-7h7h252v0v258v0h-259v0zM876 1596v-259v0h258v7v-7v7v252v0h-258v0zM876 1330v-258v0h258v0v258v0h-258v0zM876 1065v-259v0h258v0v259v0h-258v0zM876 799v-258v0h258
v0v258v0h-258v0zM876 534v-259v0h258v0v259v0h-258v0zM611 268v-258v0h258v0v258v0h-258v0zM876 268v-258v0h258v0v258v0h-258v0zM1141 268v-258h7h-7h7h252v0v258v0h-259v0z" />
    <glyph glyph-name="J" unicode="J" horiz-adv-x="2185" 
d="M876 1861v-258h7h-7h7h251v0v258v0h-258v0zM1141 1861v-258h7h-7h7h252v0v258v0h-259v0zM1407 1861v-258h7h-7h7h230h7h-7h7h14v0v258h-14h14h-14h-244v0zM1141 1596v-259v0h259v7v-7v7v252v0h-259v0zM1141 1330v-258v0h259v0v258v0h-259v0zM1141 1065v-259v0h259v0v259
v0h-259v0zM1141 799v-258v0h259v7v-7v7v251v0h-259v0zM80 534v-259v0h258v0v259v0h-258v0zM1141 534v-259v0h259v7v-7v7v252v0h-259v0zM345 268v-258v0h259v0v258v0h-259v0zM611 268v-258v0h258v0v258v0h-258v0zM876 268v-258v0h258v0v258v0h-258v0z" />
    <glyph glyph-name="K" unicode="K" horiz-adv-x="2185" 
d="M80 1861v-258v0h258v7v-7v7v251v0h-258v0zM1407 1861v-258h7h-7h7h230h7h-7h7h14v0v258h-14h14h-14h-244v0zM80 1596v-259v0h258v0v259v0h-258v0zM1141 1596v-259v0h259v7v-7v7v252v0h-259v0zM80 1330v-258v0h258v0v258v0h-258v0zM876 1330v-258v0h258v0v258v0h-258v0z
M80 1065v-259v0h258v0v259v0h-258v0zM345 1065v-259h7h-7h7h252v0v259v0h-259v0zM611 1065v-259v0h258v0v259v0h-258v0zM80 799v-258v0h258v7v-7v7v251v0h-258v0zM876 799v-258v0h258v0v258v0h-258v0zM80 534v-259v0h258v0v259v0h-258v0zM1141 534v-259v0h259v7v-7v7v252v0
h-259v0zM80 268v-258v0h258v0v258v0h-258v0zM1407 268v-258v0h237h7h-7h7h14v0v258h-14h14h-14h-244v0z" />
    <glyph glyph-name="L" unicode="L" horiz-adv-x="2185" 
d="M80 1861v-258v0h258v7v-7v7v251v0h-258v0zM80 1596v-259v0h258v0v259v0h-258v0zM80 1330v-258v0h258v0v258v0h-258v0zM80 1065v-259v0h258v0v259v0h-258v0zM80 799v-258v0h258v7v-7v7v251v0h-258v0zM80 534v-259v0h258v0v259v0h-258v0zM80 268v-258v0h258v0v258v0h-258v0
zM345 268v-258v0h259v0v258v0h-259v0zM611 268v-258v0h258v0v258v0h-258v0zM876 268v-258v0h258v0v258v0h-258v0zM1141 268v-258h7h-7h7h252v0v258v0h-259v0zM1407 268v-258v0h237h7h-7h7h14v0v258h-14h14h-14h-244v0z" />
    <glyph glyph-name="M" unicode="M" horiz-adv-x="2185" 
d="M80 1861v-258v0h258v7v-7v7v251v0h-258v0zM1407 1861v-258h7h-7h7h230h7h-7h7h14v0v258h-14h14h-14h-244v0zM80 1596v-259v0h258v0v259v0h-258v0zM345 1596v-259v0h259v7v-7v7v252v0h-259v0zM1141 1596v-259v0h259v7v-7v7v252v0h-259v0zM1407 1596v-259v0h237h7h-7h7h14
v0v259h-14h14h-14h-244v0zM80 1330v-258v0h258v0v258v0h-258v0zM611 1330v-258v0h258v0v258v0h-258v0zM876 1330v-258v0h258v0v258v0h-258v0zM1407 1330v-258v0h237h7h-7h7h14v0v258h-14h14h-14h-244v0zM80 1065v-259v0h258v0v259v0h-258v0zM611 1065v-259v0h258v0v259v0
h-258v0zM876 1065v-259v0h258v0v259v0h-258v0zM1407 1065v-259v0h237h7h-7h7h14v0v259h-14h14h-14h-244v0zM80 799v-258v0h258v7v-7v7v251v0h-258v0zM1407 799v-258v0h237h7h-7h7h14v7v-7v7v251h-14h14h-14h-244v0zM80 534v-259v0h258v0v259v0h-258v0zM1407 534v-259h7h-7h7
h230h7h-7h7h14v0v259h-14h14h-14h-244v0zM80 268v-258v0h258v0v258v0h-258v0zM1407 268v-258v0h237h7h-7h7h14v0v258h-14h14h-14h-244v0z" />
    <glyph glyph-name="N" unicode="N" horiz-adv-x="2185" 
d="M80 1861v-258v0h258v7v-7v7v251v0h-258v0zM1407 1861v-258h7h-7h7h230h7h-7h7h14v0v258h-14h14h-14h-244v0zM80 1596v-259v0h258v0v259v0h-258v0zM345 1596v-259v0h259v7v-7v7v252v0h-259v0zM1407 1596v-259v0h237h7h-7h7h14v0v259h-14h14h-14h-244v0zM80 1330v-258v0
h258v0v258v0h-258v0zM611 1330v-258v0h258v0v258v0h-258v0zM1407 1330v-258v0h237h7h-7h7h14v0v258h-14h14h-14h-244v0zM80 1065v-259v0h258v0v259v0h-258v0zM876 1065v-259v0h258v0v259v0h-258v0zM1407 1065v-259v0h237h7h-7h7h14v0v259h-14h14h-14h-244v0zM80 799v-258v0
h258v7v-7v7v251v0h-258v0zM1141 799v-258v0h259v7v-7v7v251v0h-259v0zM1407 799v-258v0h237h7h-7h7h14v7v-7v7v251h-14h14h-14h-244v0zM80 534v-259v0h258v0v259v0h-258v0zM1407 534v-259h7h-7h7h230h7h-7h7h14v0v259h-14h14h-14h-244v0zM80 268v-258v0h258v0v258v0h-258v0z
M1407 268v-258v0h237h7h-7h7h14v0v258h-14h14h-14h-244v0z" />
    <glyph glyph-name="O" unicode="O" horiz-adv-x="2185" 
d="M611 1861v-258v0h258v0v258v0h-258v0zM876 1861v-258h7h-7h7h251v0v258v0h-258v0zM345 1596v-259v0h259v7v-7v7v252v0h-259v0zM1141 1596v-259v0h259v7v-7v7v252v0h-259v0zM80 1330v-258v0h258v0v258v0h-258v0zM1407 1330v-258v0h237h7h-7h7h14v0v258h-14h14h-14h-244v0z
M80 1065v-259v0h258v0v259v0h-258v0zM1407 1065v-259v0h237h7h-7h7h14v0v259h-14h14h-14h-244v0zM80 799v-258v0h258v7v-7v7v251v0h-258v0zM1407 799v-258v0h237h7h-7h7h14v7v-7v7v251h-14h14h-14h-244v0zM345 534v-259h7h-7h7h252v0v259v0h-259v0zM1141 534v-259v0h259v7
v-7v7v252v0h-259v0zM611 268v-258v0h258v0v258v0h-258v0zM876 268v-258v0h258v0v258v0h-258v0z" />
    <glyph glyph-name="P" unicode="P" horiz-adv-x="2185" 
d="M80 1861v-258v0h258v7v-7v7v251v0h-258v0zM345 1861v-258v0h259v7v-7v7v251v0h-259v0zM611 1861v-258v0h258v0v258v0h-258v0zM876 1861v-258h7h-7h7h251v0v258v0h-258v0zM1141 1861v-258h7h-7h7h252v0v258v0h-259v0zM80 1596v-259v0h258v0v259v0h-258v0zM1407 1596v-259
v0h237h7h-7h7h14v0v259h-14h14h-14h-244v0zM80 1330v-258v0h258v0v258v0h-258v0zM1407 1330v-258v0h237h7h-7h7h14v0v258h-14h14h-14h-244v0zM80 1065v-259v0h258v0v259v0h-258v0zM345 1065v-259h7h-7h7h252v0v259v0h-259v0zM611 1065v-259v0h258v0v259v0h-258v0zM876 1065
v-259v0h258v0v259v0h-258v0zM1141 1065v-259v0h259v0v259v0h-259v0zM80 799v-258v0h258v7v-7v7v251v0h-258v0zM80 534v-259v0h258v0v259v0h-258v0zM80 268v-258v0h258v0v258v0h-258v0z" />
    <glyph glyph-name="Q" unicode="Q" horiz-adv-x="2185" 
d="M611 1861v-258v0h258v0v258v0h-258v0zM876 1861v-258h7h-7h7h251v0v258v0h-258v0zM345 1596v-259v0h259v7v-7v7v252v0h-259v0zM1141 1596v-259v0h259v7v-7v7v252v0h-259v0zM80 1330v-258v0h258v0v258v0h-258v0zM1407 1330v-258v0h237h7h-7h7h14v0v258h-14h14h-14h-244v0z
M80 1065v-259v0h258v0v259v0h-258v0zM1407 1065v-259v0h237h7h-7h7h14v0v259h-14h14h-14h-244v0zM80 799v-258v0h258v7v-7v7v251v0h-258v0zM876 799v-258v0h258v0v258v0h-258v0zM1407 799v-258v0h237h7h-7h7h14v7v-7v7v251h-14h14h-14h-244v0zM345 534v-259h7h-7h7h252v0
v259v0h-259v0zM1141 534v-259v0h259v7v-7v7v252v0h-259v0zM611 268v-258v0h258v0v258v0h-258v0zM876 268v-258v0h258v0v258v0h-258v0zM1407 268v-258v0h237h7h-7h7h14v0v258h-14h14h-14h-244v0z" />
    <glyph glyph-name="R" unicode="R" horiz-adv-x="2185" 
d="M80 1861v-258v0h258v7v-7v7v251v0h-258v0zM345 1861v-258v0h259v7v-7v7v251v0h-259v0zM611 1861v-258v0h258v0v258v0h-258v0zM876 1861v-258h7h-7h7h251v0v258v0h-258v0zM1141 1861v-258h7h-7h7h252v0v258v0h-259v0zM80 1596v-259v0h258v0v259v0h-258v0zM1407 1596v-259
v0h237h7h-7h7h14v0v259h-14h14h-14h-244v0zM80 1330v-258v0h258v0v258v0h-258v0zM1407 1330v-258v0h237h7h-7h7h14v0v258h-14h14h-14h-244v0zM80 1065v-259v0h258v0v259v0h-258v0zM345 1065v-259h7h-7h7h252v0v259v0h-259v0zM611 1065v-259v0h258v0v259v0h-258v0zM876 1065
v-259v0h258v0v259v0h-258v0zM1141 1065v-259v0h259v0v259v0h-259v0zM80 799v-258v0h258v7v-7v7v251v0h-258v0zM876 799v-258v0h258v0v258v0h-258v0zM80 534v-259v0h258v0v259v0h-258v0zM1141 534v-259v0h259v7v-7v7v252v0h-259v0zM80 268v-258v0h258v0v258v0h-258v0z
M1407 268v-258v0h237h7h-7h7h14v0v258h-14h14h-14h-244v0z" />
    <glyph glyph-name="S" unicode="S" horiz-adv-x="2185" 
d="M345 1861v-258v0h259v7v-7v7v251v0h-259v0zM611 1861v-258v0h258v0v258v0h-258v0zM876 1861v-258h7h-7h7h251v0v258v0h-258v0zM1141 1861v-258h7h-7h7h252v0v258v0h-259v0zM80 1596v-259v0h258v0v259v0h-258v0zM1407 1596v-259v0h237h7h-7h7h14v0v259h-14h14h-14h-244v0z
M80 1330v-258v0h258v0v258v0h-258v0zM345 1065v-259h7h-7h7h252v0v259v0h-259v0zM611 1065v-259v0h258v0v259v0h-258v0zM876 1065v-259v0h258v0v259v0h-258v0zM1141 1065v-259v0h259v0v259v0h-259v0zM1407 799v-258v0h237h7h-7h7h14v7v-7v7v251h-14h14h-14h-244v0zM80 534
v-259v0h258v0v259v0h-258v0zM1407 534v-259h7h-7h7h230h7h-7h7h14v0v259h-14h14h-14h-244v0zM345 268v-258v0h259v0v258v0h-259v0zM611 268v-258v0h258v0v258v0h-258v0zM876 268v-258v0h258v0v258v0h-258v0zM1141 268v-258h7h-7h7h252v0v258v0h-259v0z" />
    <glyph glyph-name="T" unicode="T" horiz-adv-x="1920" 
d="M80 1861v-258v0h258v7v-7v7v251v0h-258v0zM345 1861v-258v0h259v7v-7v7v251v0h-259v0zM611 1861v-258v0h258v0v258v0h-258v0zM876 1861v-258h7h-7h7h251v0v258v0h-258v0zM1141 1861v-258h7h-7h7h252v0v258v0h-259v0zM611 1596v-259v0h258v0v259v0h-258v0zM611 1330v-258
v0h258v0v258v0h-258v0zM611 1065v-259v0h258v0v259v0h-258v0zM611 799v-258v0h258v0v258v0h-258v0zM611 534v-259v0h258v7v-7v7v252v0h-258v0zM611 268v-258v0h258v0v258v0h-258v0z" />
    <glyph glyph-name="U" unicode="U" horiz-adv-x="2185" 
d="M80 1861v-258v0h258v7v-7v7v251v0h-258v0zM1407 1861v-258h7h-7h7h230h7h-7h7h14v0v258h-14h14h-14h-244v0zM80 1596v-259v0h258v0v259v0h-258v0zM1407 1596v-259v0h237h7h-7h7h14v0v259h-14h14h-14h-244v0zM80 1330v-258v0h258v0v258v0h-258v0zM1407 1330v-258v0h237h7
h-7h7h14v0v258h-14h14h-14h-244v0zM80 1065v-259v0h258v0v259v0h-258v0zM1407 1065v-259v0h237h7h-7h7h14v0v259h-14h14h-14h-244v0zM80 799v-258v0h258v7v-7v7v251v0h-258v0zM1407 799v-258v0h237h7h-7h7h14v7v-7v7v251h-14h14h-14h-244v0zM80 534v-259v0h258v0v259v0h-258
v0zM1407 534v-259h7h-7h7h230h7h-7h7h14v0v259h-14h14h-14h-244v0zM345 268v-258v0h259v0v258v0h-259v0zM611 268v-258v0h258v0v258v0h-258v0zM876 268v-258v0h258v0v258v0h-258v0zM1141 268v-258h7h-7h7h252v0v258v0h-259v0z" />
    <glyph glyph-name="V" unicode="V" horiz-adv-x="2185" 
d="M80 1861v-258v0h258v7v-7v7v251v0h-258v0zM1407 1861v-258h7h-7h7h230h7h-7h7h14v0v258h-14h14h-14h-244v0zM80 1596v-259v0h258v0v259v0h-258v0zM1407 1596v-259v0h237h7h-7h7h14v0v259h-14h14h-14h-244v0zM80 1330v-258v0h258v0v258v0h-258v0zM1407 1330v-258v0h237h7
h-7h7h14v0v258h-14h14h-14h-244v0zM345 1065v-259h7h-7h7h252v0v259v0h-259v0zM1141 1065v-259v0h259v0v259v0h-259v0zM345 799v-258v0h259v0v258v0h-259v0zM1141 799v-258v0h259v7v-7v7v251v0h-259v0zM611 534v-259v0h258v7v-7v7v252v0h-258v0zM876 534v-259v0h258v0v259v0
h-258v0zM611 268v-258v0h258v0v258v0h-258v0zM876 268v-258v0h258v0v258v0h-258v0z" />
    <glyph glyph-name="W" unicode="W" horiz-adv-x="2185" 
d="M80 9v258v0h258v-7v7v-7v-251v0h-258v0zM1407 9v258h7h-7h7h230h7h-7h7h14v0v-258h-14h14h-14h-244v0zM80 274v259v0h258v0v-259v0h-258v0zM345 274v259v0h259v-7v7v-7v-252v0h-259v0zM1141 274v259v0h259v-7v7v-7v-252v0h-259v0zM1407 274v259v0h237h7h-7h7h14v0v-259
h-14h14h-14h-244v0zM80 540v258v0h258v0v-258v0h-258v0zM611 540v258v0h258v0v-258v0h-258v0zM876 540v258v0h258v0v-258v0h-258v0zM1407 540v258v0h237h7h-7h7h14v0v-258h-14h14h-14h-244v0zM80 805v259v0h258v0v-259v0h-258v0zM611 805v259v0h258v0v-259v0h-258v0z
M876 805v259v0h258v0v-259v0h-258v0zM1407 805v259v0h237h7h-7h7h14v0v-259h-14h14h-14h-244v0zM80 1071v258v0h258v-7v7v-7v-251v0h-258v0zM1407 1071v258v0h237h7h-7h7h14v-7v7v-7v-251h-14h14h-14h-244v0zM80 1336v259v0h258v0v-259v0h-258v0zM1407 1336v259h7h-7h7h230
h7h-7h7h14v0v-259h-14h14h-14h-244v0zM80 1602v258v0h258v0v-258v0h-258v0zM1407 1602v258v0h237h7h-7h7h14v0v-258h-14h14h-14h-244v0z" />
    <glyph glyph-name="X" unicode="X" horiz-adv-x="2185" 
d="M80 1861v-258v0h258v7v-7v7v251v0h-258v0zM1407 1861v-258h7h-7h7h230h7h-7h7h14v0v258h-14h14h-14h-244v0zM80 1596v-259v0h258v0v259v0h-258v0zM1407 1596v-259v0h237h7h-7h7h14v0v259h-14h14h-14h-244v0zM345 1330v-258v0h259v0v258v0h-259v0zM1141 1330v-258v0h259v0
v258v0h-259v0zM611 1065v-259v0h258v0v259v0h-258v0zM876 1065v-259v0h258v0v259v0h-258v0zM345 799v-258v0h259v0v258v0h-259v0zM1141 799v-258v0h259v7v-7v7v251v0h-259v0zM80 534v-259v0h258v0v259v0h-258v0zM1407 534v-259h7h-7h7h230h7h-7h7h14v0v259h-14h14h-14h-244
v0zM80 268v-258v0h258v0v258v0h-258v0zM1407 268v-258v0h237h7h-7h7h14v0v258h-14h14h-14h-244v0z" />
    <glyph glyph-name="Y" unicode="Y" horiz-adv-x="1920" 
d="M80 1861v-258v0h258v7v-7v7v251v0h-258v0zM1141 1861v-258h7h-7h7h252v0v258v0h-259v0zM80 1596v-259v0h258v0v259v0h-258v0zM1141 1596v-259v0h259v7v-7v7v252v0h-259v0zM80 1330v-258v0h258v0v258v0h-258v0zM1141 1330v-258v0h259v0v258v0h-259v0zM345 1065v-259h7h-7
h7h252v0v259v0h-259v0zM611 1065v-259v0h258v0v259v0h-258v0zM876 1065v-259v0h258v0v259v0h-258v0zM611 799v-258v0h258v0v258v0h-258v0zM611 534v-259v0h258v7v-7v7v252v0h-258v0zM611 268v-258v0h258v0v258v0h-258v0z" />
    <glyph glyph-name="Z" unicode="Z" horiz-adv-x="2185" 
d="M80 1861v-258v0h258v7v-7v7v251v0h-258v0zM345 1861v-258v0h259v7v-7v7v251v0h-259v0zM611 1861v-258v0h258v0v258v0h-258v0zM876 1861v-258h7h-7h7h251v0v258v0h-258v0zM1141 1861v-258h7h-7h7h252v0v258v0h-259v0zM1407 1861v-258h7h-7h7h230h7h-7h7h14v0v258h-14h14
h-14h-244v0zM1407 1596v-259v0h237h7h-7h7h14v0v259h-14h14h-14h-244v0zM1141 1330v-258v0h259v0v258v0h-259v0zM611 1065v-259v0h258v0v259v0h-258v0zM876 1065v-259v0h258v0v259v0h-258v0zM345 799v-258v0h259v0v258v0h-259v0zM80 534v-259v0h258v0v259v0h-258v0zM80 268
v-258v0h258v0v258v0h-258v0zM345 268v-258v0h259v0v258v0h-259v0zM611 268v-258v0h258v0v258v0h-258v0zM876 268v-258v0h258v0v258v0h-258v0zM1141 268v-258h7h-7h7h252v0v258v0h-259v0zM1407 268v-258v0h237h7h-7h7h14v0v258h-14h14h-14h-244v0z" />
    <glyph glyph-name="bracketleft" unicode="[" horiz-adv-x="1654" 
d="M80 1861v-258v0h258v7v-7v7v251v0h-258v0zM345 1861v-258v0h259v7v-7v7v251v0h-259v0zM611 1861v-258v0h258v0v258v0h-258v0zM876 1861v-258h7h-7h7h251v0v258v0h-258v0zM80 1596v-259v0h258v0v259v0h-258v0zM80 1330v-258v0h258v0v258v0h-258v0zM80 1065v-259v0h258v0
v259v0h-258v0zM80 799v-258v0h258v7v-7v7v251v0h-258v0zM80 534v-259v0h258v0v259v0h-258v0zM80 268v-258v0h258v0v258v0h-258v0zM345 268v-258v0h259v0v258v0h-259v0zM611 268v-258v0h258v0v258v0h-258v0zM876 268v-258v0h258v0v258v0h-258v0z" />
    <glyph glyph-name="backslash" unicode="\" horiz-adv-x="2185" 
d="M337 1596v-259v0h-237h-7h7h-7h-14v0v259h14h-14h14h244v0zM603 1330v-258v0h-259v0v258v0h259v0zM868 1065v-259v0h-258v0v259v0h258v0zM1133 799v-258v0h-258v0v258v0h258v0zM1399 534v-259h-7h7h-7h-252v0v259v0h259v0zM1664 268v-258v0h-258v0v258v0h258v0z" />
    <glyph glyph-name="bracketright" unicode="]" horiz-adv-x="1654" 
d="M1134 1861v-258v0h-258v7v-7v7v251v0h258v0zM869 1861v-258v0h-259v7v-7v7v251v0h259v0zM603 1861v-258v0h-258v0v258v0h258v0zM338 1861v-258h-7h7h-7h-251v0v258v0h258v0zM1134 1596v-259v0h-258v0v259v0h258v0zM1134 1330v-258v0h-258v0v258v0h258v0zM1134 1065v-259
v0h-258v0v259v0h258v0zM1134 799v-258v0h-258v7v-7v7v251v0h258v0zM1134 534v-259v0h-258v0v259v0h258v0zM1134 268v-258v0h-258v0v258v0h258v0zM869 268v-258v0h-259v0v258v0h259v0zM603 268v-258v0h-258v0v258v0h258v0zM338 268v-258v0h-258v0v258v0h258v0z" />
    <glyph glyph-name="asciicircum" unicode="^" horiz-adv-x="2185" 
d="M611 1861v-258v0h258v0v258v0h-258v0zM345 1596v-259v0h259v7v-7v7v252v0h-259v0zM876 1596v-259v0h258v7v-7v7v252v0h-258v0zM80 1330v-258v0h258v0v258v0h-258v0zM1141 1330v-258v0h259v0v258v0h-259v0z" />
    <glyph glyph-name="underscore" unicode="_" horiz-adv-x="2185" 
d="M80 268v-258v0h258v0v258v0h-258v0zM345 268v-258v0h259v0v258v0h-259v0zM611 268v-258v0h258v0v258v0h-258v0zM876 268v-258v0h258v0v258v0h-258v0zM1141 268v-258h7h-7h7h252v0v258v0h-259v0zM1407 268v-258v0h237h7h-7h7h14v0v258h-14h14h-14h-244v0z" />
    <glyph glyph-name="grave" unicode="`" horiz-adv-x="1389" 
d="M337 1861v-258v0h-258v0v258v0h258v0zM603 1596v-259v0h-259v7v-7v7v252v0h259v0zM868 1330v-258v0h-258v0v258v0h258v0z" />
    <glyph glyph-name="a" unicode="a" horiz-adv-x="2185" 
d="M345 1330v-258v0h259v0v258v0h-259v0zM611 1330v-258v0h258v0v258v0h-258v0zM876 1330v-258v0h258v0v258v0h-258v0zM1141 1065v-259v0h259v0v259v0h-259v0zM345 799v-258v0h259v0v258v0h-259v0zM611 799v-258v0h258v0v258v0h-258v0zM876 799v-258v0h258v0v258v0h-258v0z
M1141 799v-258v0h259v7v-7v7v251v0h-259v0zM80 534v-259v0h258v0v259v0h-258v0zM1141 534v-259v0h259v7v-7v7v252v0h-259v0zM345 268v-258v0h259v0v258v0h-259v0zM611 268v-258v0h258v0v258v0h-258v0zM876 268v-258v0h258v0v258v0h-258v0zM1407 268v-258v0h237h7h-7h7h14v0
v258h-14h14h-14h-244v0z" />
    <glyph glyph-name="b" unicode="b" horiz-adv-x="2185" 
d="M80 1861v-258v0h258v7v-7v7v251v0h-258v0zM80 1596v-259v0h258v0v259v0h-258v0zM80 1330v-258v0h258v0v258v0h-258v0zM611 1330v-258v0h258v0v258v0h-258v0zM876 1330v-258v0h258v0v258v0h-258v0zM1141 1330v-258v0h259v0v258v0h-259v0zM80 1065v-259v0h258v0v259v0h-258
v0zM345 1065v-259h7h-7h7h252v0v259v0h-259v0zM1407 1065v-259v0h237h7h-7h7h14v0v259h-14h14h-14h-244v0zM80 799v-258v0h258v7v-7v7v251v0h-258v0zM1407 799v-258v0h237h7h-7h7h14v7v-7v7v251h-14h14h-14h-244v0zM80 534v-259v0h258v0v259v0h-258v0zM345 534v-259h7h-7h7
h252v0v259v0h-259v0zM1407 534v-259h7h-7h7h230h7h-7h7h14v0v259h-14h14h-14h-244v0zM80 268v-258v0h258v0v258v0h-258v0zM611 268v-258v0h258v0v258v0h-258v0zM876 268v-258v0h258v0v258v0h-258v0zM1141 268v-258h7h-7h7h252v0v258v0h-259v0z" />
    <glyph glyph-name="c" unicode="c" horiz-adv-x="2185" 
d="M345 1330v-258v0h259v0v258v0h-259v0zM611 1330v-258v0h258v0v258v0h-258v0zM876 1330v-258v0h258v0v258v0h-258v0zM1141 1330v-258v0h259v0v258v0h-259v0zM80 1065v-259v0h258v0v259v0h-258v0zM1407 1065v-259v0h237h7h-7h7h14v0v259h-14h14h-14h-244v0zM80 799v-258v0
h258v7v-7v7v251v0h-258v0zM80 534v-259v0h258v0v259v0h-258v0zM1407 534v-259h7h-7h7h230h7h-7h7h14v0v259h-14h14h-14h-244v0zM345 268v-258v0h259v0v258v0h-259v0zM611 268v-258v0h258v0v258v0h-258v0zM876 268v-258v0h258v0v258v0h-258v0zM1141 268v-258h7h-7h7h252v0
v258v0h-259v0z" />
    <glyph glyph-name="d" unicode="d" horiz-adv-x="2185" 
d="M1664 1861v-258v0h-258v7v-7v7v251v0h258v0zM1664 1596v-259v0h-258v0v259v0h258v0zM1664 1330v-258v0h-258v0v258v0h258v0zM1133 1330v-258v0h-258v0v258v0h258v0zM868 1330v-258v0h-258v0v258v0h258v0zM603 1330v-258v0h-259v0v258v0h259v0zM1664 1065v-259v0h-258v0
v259v0h258v0zM1399 1065v-259h-7h7h-7h-252v0v259v0h259v0zM337 1065v-259v0h-237h-7h7h-7h-14v0v259h14h-14h14h244v0zM1664 799v-258v0h-258v7v-7v7v251v0h258v0zM337 799v-258v0h-237h-7h7h-7h-14v7v-7v7v251h14h-14h14h244v0zM1664 534v-259v0h-258v0v259v0h258v0z
M1399 534v-259h-7h7h-7h-252v0v259v0h259v0zM337 534v-259h-7h7h-7h-230h-7h7h-7h-14v0v259h14h-14h14h244v0zM1664 268v-258v0h-258v0v258v0h258v0zM1133 268v-258v0h-258v0v258v0h258v0zM868 268v-258v0h-258v0v258v0h258v0zM603 268v-258h-7h7h-7h-252v0v258v0h259v0z
" />
    <glyph glyph-name="e" unicode="e" horiz-adv-x="2185" 
d="M345 1330v-258v0h259v0v258v0h-259v0zM611 1330v-258v0h258v0v258v0h-258v0zM876 1330v-258v0h258v0v258v0h-258v0zM1141 1330v-258v0h259v0v258v0h-259v0zM80 1065v-259v0h258v0v259v0h-258v0zM1407 1065v-259v0h237h7h-7h7h14v0v259h-14h14h-14h-244v0zM80 799v-258v0
h258v7v-7v7v251v0h-258v0zM345 799v-258v0h259v0v258v0h-259v0zM611 799v-258v0h258v0v258v0h-258v0zM876 799v-258v0h258v0v258v0h-258v0zM1141 799v-258v0h259v7v-7v7v251v0h-259v0zM80 534v-259v0h258v0v259v0h-258v0zM345 268v-258v0h259v0v258v0h-259v0zM611 268v-258
v0h258v0v258v0h-258v0zM876 268v-258v0h258v0v258v0h-258v0zM1141 268v-258h7h-7h7h252v0v258v0h-259v0z" />
    <glyph glyph-name="f" unicode="f" horiz-adv-x="2185" 
d="M876 1861v-258h7h-7h7h251v0v258v0h-258v0zM1141 1861v-258h7h-7h7h252v0v258v0h-259v0zM611 1596v-259v0h258v0v259v0h-258v0zM1407 1596v-259v0h237h7h-7h7h14v0v259h-14h14h-14h-244v0zM611 1330v-258v0h258v0v258v0h-258v0zM80 1065v-259v0h258v0v259v0h-258v0z
M345 1065v-259h7h-7h7h252v0v259v0h-259v0zM611 1065v-259v0h258v0v259v0h-258v0zM876 1065v-259v0h258v0v259v0h-258v0zM1141 1065v-259v0h259v0v259v0h-259v0zM611 799v-258v0h258v0v258v0h-258v0zM611 534v-259v0h258v7v-7v7v252v0h-258v0zM611 268v-258v0h258v0v258v0
h-258v0z" />
    <glyph glyph-name="g" unicode="g" horiz-adv-x="2185" 
d="M345 1330v-258v0h259v0v258v0h-259v0zM611 1330v-258v0h258v0v258v0h-258v0zM876 1330v-258v0h258v0v258v0h-258v0zM1407 1330v-258v0h237h7h-7h7h14v0v258h-14h14h-14h-244v0zM80 1065v-259v0h258v0v259v0h-258v0zM1141 1065v-259v0h259v0v259v0h-259v0zM1407 1065v-259
v0h237h7h-7h7h14v0v259h-14h14h-14h-244v0zM80 799v-258v0h258v7v-7v7v251v0h-258v0zM1141 799v-258v0h259v7v-7v7v251v0h-259v0zM1407 799v-258v0h237h7h-7h7h14v7v-7v7v251h-14h14h-14h-244v0zM345 534v-259h7h-7h7h252v0v259v0h-259v0zM611 534v-259v0h258v7v-7v7v252v0
h-258v0zM876 534v-259v0h258v0v259v0h-258v0zM1407 534v-259h7h-7h7h230h7h-7h7h14v0v259h-14h14h-14h-244v0zM610 2v-258v0h258v0v258v0h-258v0zM1407 268v-258v0h237h7h-7h7h14v0v258h-14h14h-14h-244v0zM344 2v-258v0h258v0v258v0h-258v0zM1407 268v-258v0h237h7h-7h7h14
v0v258h-14h14h-14h-244v0zM1407 268v-258v0h237h7h-7h7h14v0v258h-14h14h-14h-244v0zM1407 268v-258v0h237h7h-7h7h14v0v258h-14h14h-14h-244v0zM1142 2v-258v0h258v0v258v0h-258v0zM876 2v-258v0h258v0v258v0h-258v0zM876 2v-258v0h258v0v258v0h-258v0zM876 2v-258v0h258v0
v258v0h-258v0zM876 2v-258v0h258v0v258v0h-258v0zM876 2v-258v0h258v0v258v0h-258v0z" />
    <glyph glyph-name="h" unicode="h" horiz-adv-x="2185" 
d="M80 1861v-258v0h258v7v-7v7v251v0h-258v0zM80 1596v-259v0h258v0v259v0h-258v0zM80 1330v-258v0h258v0v258v0h-258v0zM611 1330v-258v0h258v0v258v0h-258v0zM876 1330v-258v0h258v0v258v0h-258v0zM1141 1330v-258v0h259v0v258v0h-259v0zM80 1065v-259v0h258v0v259v0h-258
v0zM345 1065v-259h7h-7h7h252v0v259v0h-259v0zM1407 1065v-259v0h237h7h-7h7h14v0v259h-14h14h-14h-244v0zM80 799v-258v0h258v7v-7v7v251v0h-258v0zM1407 799v-258v0h237h7h-7h7h14v7v-7v7v251h-14h14h-14h-244v0zM80 534v-259v0h258v0v259v0h-258v0zM1407 534v-259h7h-7h7
h230h7h-7h7h14v0v259h-14h14h-14h-244v0zM80 268v-258v0h258v0v258v0h-258v0zM1407 268v-258v0h237h7h-7h7h14v0v258h-14h14h-14h-244v0z" />
    <glyph glyph-name="i" unicode="i" horiz-adv-x="1389" 
d="M611 1861v-258v0h258v0v258v0h-258v0zM345 1330v-258v0h259v0v258v0h-259v0zM611 1330v-258v0h258v0v258v0h-258v0zM611 1065v-259v0h258v0v259v0h-258v0zM611 799v-258v0h258v0v258v0h-258v0zM611 534v-259v0h258v7v-7v7v252v0h-258v0zM345 268v-258v0h259v0v258v0h-259
v0zM611 268v-258v0h258v0v258v0h-258v0zM876 268v-258v0h258v0v258v0h-258v0z" />
    <glyph glyph-name="j" unicode="j" horiz-adv-x="2185" 
d="M1407 1861v-258h7h-7h7h230h7h-7h7h14v0v258h-14h14h-14h-244v0zM1141 1330v-258v0h259v0v258v0h-259v0zM1407 1330v-258v0h237h7h-7h7h14v0v258h-14h14h-14h-244v0zM1407 1065v-259v0h237h7h-7h7h14v0v259h-14h14h-14h-244v0zM1407 799v-258v0h237h7h-7h7h14v7v-7v7v251
h-14h14h-14h-244v0zM1407 534v-259h7h-7h7h230h7h-7h7h14v0v259h-14h14h-14h-244v0zM80 268v-258v0h258v0v258v0h-258v0zM610 2v-258v0h258v0v258v0h-258v0zM1407 268v-258v0h237h7h-7h7h14v0v258h-14h14h-14h-244v0zM1407 1861v-258h7h-7h7h230h7h-7h7h14v0v258h-14h14h-14
h-244v0zM1407 1861v-258h7h-7h7h230h7h-7h7h14v0v258h-14h14h-14h-244v0zM1407 1861v-258h7h-7h7h230h7h-7h7h14v0v258h-14h14h-14h-244v0zM1407 1861v-258h7h-7h7h230h7h-7h7h14v0v258h-14h14h-14h-244v0zM1407 1861v-258h7h-7h7h230h7h-7h7h14v0v258h-14h14h-14h-244v0z
M80 268v-258v0h258v0v258v0h-258v0zM344 2v-258v0h258v0v258v0h-258v0zM1407 268v-258v0h237h7h-7h7h14v0v258h-14h14h-14h-244v0zM80 268v-258v0h258v0v258v0h-258v0zM1407 268v-258v0h237h7h-7h7h14v0v258h-14h14h-14h-244v0zM80 268v-258v0h258v0v258v0h-258v0zM1407 268
v-258v0h237h7h-7h7h14v0v258h-14h14h-14h-244v0zM1142 2v-258v0h258v0v258v0h-258v0zM876 2v-258v0h258v0v258v0h-258v0zM876 2v-258v0h258v0v258v0h-258v0zM876 2v-258v0h258v0v258v0h-258v0zM876 2v-258v0h258v0v258v0h-258v0zM876 2v-258v0h258v0v258v0h-258v0z" />
    <glyph glyph-name="k" unicode="k" horiz-adv-x="1920" 
d="M80 1861v-258v0h258v7v-7v7v251v0h-258v0zM80 1596v-259v0h258v0v259v0h-258v0zM80 1330v-258v0h258v0v258v0h-258v0zM1141 1330v-258v0h259v0v258v0h-259v0zM80 1065v-259v0h258v0v259v0h-258v0zM876 1065v-259v0h258v0v259v0h-258v0zM80 799v-258v0h258v7v-7v7v251v0
h-258v0zM611 799v-258v0h258v0v258v0h-258v0zM80 534v-259v0h258v0v259v0h-258v0zM345 534v-259h7h-7h7h252v0v259v0h-259v0zM876 534v-259v0h258v0v259v0h-258v0zM80 268v-258v0h258v0v258v0h-258v0zM1141 268v-258h7h-7h7h252v0v258v0h-259v0z" />
    <glyph glyph-name="l" unicode="l" horiz-adv-x="1389" 
d="M345 1861v-258v0h259v7v-7v7v251v0h-259v0zM611 1861v-258v0h258v0v258v0h-258v0zM611 1596v-259v0h258v0v259v0h-258v0zM611 1330v-258v0h258v0v258v0h-258v0zM611 1065v-259v0h258v0v259v0h-258v0zM611 799v-258v0h258v0v258v0h-258v0zM611 534v-259v0h258v7v-7v7v252
v0h-258v0zM345 268v-258v0h259v0v258v0h-259v0zM611 268v-258v0h258v0v258v0h-258v0zM876 268v-258v0h258v0v258v0h-258v0z" />
    <glyph glyph-name="m" unicode="m" horiz-adv-x="2452" 
d="M80 1330v-258v0h258v0v258v0h-258v0zM345 1330v-258v0h259v0v258v0h-259v0zM611 1330v-258v0h258v0v258v0h-258v0zM1141 1330v-258v0h259v0v258v0h-259v0zM1407 1330v-258v0h237h7h-7h7h14v0v258h-14h14h-14h-244v0zM80 1065v-259v0h258v0v259v0h-258v0zM876 1065v-259v0
h258v0v259v0h-258v0zM80 799v-258v0h258v7v-7v7v251v0h-258v0zM876 799v-258v0h258v0v258v0h-258v0zM80 534v-259v0h258v0v259v0h-258v0zM876 534v-259v0h258v0v259v0h-258v0zM80 268v-258v0h258v0v258v0h-258v0zM876 268v-258v0h258v0v258v0h-258v0zM1674 798v-258v0h237h7
h-7h7h14v7v-7v7v251h-14h14h-14h-244v0zM1674 533v-259h7h-7h7h230h7h-7h7h14v0v259h-14h14h-14h-244v0zM1674 267v-258v0h237h7h-7h7h14v0v258h-14h14h-14h-244v0zM1674 1064v-259v0h237h7h-7h7h14v0v259h-14h14h-14h-244v0zM1674 798v-258v0h237h7h-7h7h14v7v-7v7v251h-14
h14h-14h-244v0z" />
    <glyph glyph-name="n" unicode="n" horiz-adv-x="2185" 
d="M80 1330v-258v0h258v0v258v0h-258v0zM611 1330v-258v0h258v0v258v0h-258v0zM876 1330v-258v0h258v0v258v0h-258v0zM1141 1330v-258v0h259v0v258v0h-259v0zM80 1065v-259v0h258v0v259v0h-258v0zM345 1065v-259h7h-7h7h252v0v259v0h-259v0zM1407 1065v-259v0h237h7h-7h7h14
v0v259h-14h14h-14h-244v0zM80 799v-258v0h258v7v-7v7v251v0h-258v0zM1407 799v-258v0h237h7h-7h7h14v7v-7v7v251h-14h14h-14h-244v0zM80 534v-259v0h258v0v259v0h-258v0zM1407 534v-259h7h-7h7h230h7h-7h7h14v0v259h-14h14h-14h-244v0zM80 268v-258v0h258v0v258v0h-258v0z
M1407 268v-258v0h237h7h-7h7h14v0v258h-14h14h-14h-244v0z" />
    <glyph glyph-name="o" unicode="o" horiz-adv-x="2185" 
d="M345 1330v-258v0h259v0v258v0h-259v0zM611 1330v-258v0h258v0v258v0h-258v0zM876 1330v-258v0h258v0v258v0h-258v0zM1141 1330v-258v0h259v0v258v0h-259v0zM80 1065v-259v0h258v0v259v0h-258v0zM1407 1065v-259v0h237h7h-7h7h14v0v259h-14h14h-14h-244v0zM80 799v-258v0
h258v7v-7v7v251v0h-258v0zM1407 799v-258v0h237h7h-7h7h14v7v-7v7v251h-14h14h-14h-244v0zM80 534v-259v0h258v0v259v0h-258v0zM1407 534v-259h7h-7h7h230h7h-7h7h14v0v259h-14h14h-14h-244v0zM345 268v-258v0h259v0v258v0h-259v0zM611 268v-258v0h258v0v258v0h-258v0z
M876 268v-258v0h258v0v258v0h-258v0zM1141 268v-258h7h-7h7h252v0v258v0h-259v0z" />
    <glyph glyph-name="p" unicode="p" horiz-adv-x="2186" 
d="M80 1330v-258v0h258v0v258v0h-258v0zM611 1330v-258v0h258v0v258v0h-258v0zM876 1330v-258v0h258v0v258v0h-258v0zM1141 1330v-258v0h259v0v258v0h-259v0zM80 1065v-259v0h258v0v259v0h-258v0zM345 1065v-259h7h-7h7h252v0v259v0h-259v0zM1407 1065v-259v0h237h7h-7h7h14
v0v259h-14h14h-14h-244v0zM80 799v-258v0h258v7v-7v7v251v0h-258v0zM345 799v-258v0h259v0v258v0h-259v0zM1407 799v-258v0h237h7h-7h7h14v7v-7v7v251h-14h14h-14h-244v0zM80 534v-259v0h258v0v259v0h-258v0zM611 534v-259v0h258v7v-7v7v252v0h-258v0zM876 534v-259v0h258v0
v259v0h-258v0zM1141 534v-259v0h259v7v-7v7v252v0h-259v0zM80 6v-258v0h258v0v258v0h-258v0zM80 268v-258v0h258v0v258v0h-258v0z" />
    <glyph glyph-name="q" unicode="q" horiz-adv-x="2186" 
d="M1664 1330v-258v0h-258v0v258v0h258v0zM1133 1330v-258v0h-258v0v258v0h258v0zM868 1330v-258v0h-258v0v258v0h258v0zM603 1330v-258v0h-259v0v258v0h259v0zM1664 1065v-259v0h-258v0v259v0h258v0zM1399 1065v-259h-7h7h-7h-252v0v259v0h259v0zM337 1065v-259v0h-237h-7
h7h-7h-14v0v259h14h-14h14h244v0zM1664 799v-258v0h-258v7v-7v7v251v0h258v0zM1399 799v-258v0h-259v0v258v0h259v0zM337 799v-258v0h-237h-7h7h-7h-14v7v-7v7v251h14h-14h14h244v0zM1664 534v-259v0h-258v0v259v0h258v0zM1133 534v-259v0h-258v7v-7v7v252v0h258v0zM868 534
v-259v0h-258v0v259v0h258v0zM603 534v-259v0h-259v7v-7v7v252v0h259v0zM1664 6v-258v0h-258v0v258v0h258v0zM1664 268v-258v0h-258v0v258v0h258v0z" />
    <glyph glyph-name="r" unicode="r" horiz-adv-x="2185" 
d="M80 1330v-258v0h258v0v258v0h-258v0zM611 1330v-258v0h258v0v258v0h-258v0zM876 1330v-258v0h258v0v258v0h-258v0zM1141 1330v-258v0h259v0v258v0h-259v0zM80 1065v-259v0h258v0v259v0h-258v0zM345 1065v-259h7h-7h7h252v0v259v0h-259v0zM1407 1065v-259v0h237h7h-7h7h14
v0v259h-14h14h-14h-244v0zM80 799v-258v0h258v7v-7v7v251v0h-258v0zM80 534v-259v0h258v0v259v0h-258v0zM80 268v-258v0h258v0v258v0h-258v0z" />
    <glyph glyph-name="s" unicode="s" horiz-adv-x="2185" 
d="M345 1330v-258v0h259v0v258v0h-259v0zM611 1330v-258v0h258v0v258v0h-258v0zM876 1330v-258v0h258v0v258v0h-258v0zM1141 1330v-258v0h259v0v258v0h-259v0zM1407 1330v-258v0h237h7h-7h7h14v0v258h-14h14h-14h-244v0zM80 1065v-259v0h258v0v259v0h-258v0zM345 799v-258v0
h259v0v258v0h-259v0zM611 799v-258v0h258v0v258v0h-258v0zM876 799v-258v0h258v0v258v0h-258v0zM1141 799v-258v0h259v7v-7v7v251v0h-259v0zM1407 534v-259h7h-7h7h230h7h-7h7h14v0v259h-14h14h-14h-244v0zM80 268v-258v0h258v0v258v0h-258v0zM345 268v-258v0h259v0v258v0
h-259v0zM611 268v-258v0h258v0v258v0h-258v0zM876 268v-258v0h258v0v258v0h-258v0zM1141 268v-258h7h-7h7h252v0v258v0h-259v0z" />
    <glyph glyph-name="t" unicode="t" horiz-adv-x="2185" 
d="M611 1861v-258v0h258v0v258v0h-258v0zM611 1596v-259v0h258v0v259v0h-258v0zM80 1330v-258v0h258v0v258v0h-258v0zM345 1330v-258v0h259v0v258v0h-259v0zM611 1330v-258v0h258v0v258v0h-258v0zM876 1330v-258v0h258v0v258v0h-258v0zM1141 1330v-258v0h259v0v258v0h-259v0
zM611 1065v-259v0h258v0v259v0h-258v0zM611 799v-258v0h258v0v258v0h-258v0zM611 534v-259v0h258v7v-7v7v252v0h-258v0zM1407 534v-259h7h-7h7h230h7h-7h7h14v0v259h-14h14h-14h-244v0zM876 268v-258v0h258v0v258v0h-258v0zM1141 268v-258h7h-7h7h252v0v258v0h-259v0z" />
    <glyph glyph-name="u" unicode="u" horiz-adv-x="2185" 
d="M80 1330v-258v0h258v0v258v0h-258v0zM1407 1330v-258v0h237h7h-7h7h14v0v258h-14h14h-14h-244v0zM80 1065v-259v0h258v0v259v0h-258v0zM1407 1065v-259v0h237h7h-7h7h14v0v259h-14h14h-14h-244v0zM80 799v-258v0h258v7v-7v7v251v0h-258v0zM1407 799v-258v0h237h7h-7h7h14
v7v-7v7v251h-14h14h-14h-244v0zM80 534v-259v0h258v0v259v0h-258v0zM1141 534v-259v0h259v7v-7v7v252v0h-259v0zM1407 534v-259h7h-7h7h230h7h-7h7h14v0v259h-14h14h-14h-244v0zM345 268v-258v0h259v0v258v0h-259v0zM611 268v-258v0h258v0v258v0h-258v0zM876 268v-258v0h258
v0v258v0h-258v0zM1407 268v-258v0h237h7h-7h7h14v0v258h-14h14h-14h-244v0z" />
    <glyph glyph-name="v" unicode="v" horiz-adv-x="2185" 
d="M80 1330v-258v0h258v0v258v0h-258v0zM1407 1330v-258v0h237h7h-7h7h14v0v258h-14h14h-14h-244v0zM80 1065v-259v0h258v0v259v0h-258v0zM1407 1065v-259v0h237h7h-7h7h14v0v259h-14h14h-14h-244v0zM80 799v-258v0h258v7v-7v7v251v0h-258v0zM1407 799v-258v0h237h7h-7h7h14
v7v-7v7v251h-14h14h-14h-244v0zM345 534v-259h7h-7h7h252v0v259v0h-259v0zM1141 534v-259v0h259v7v-7v7v252v0h-259v0zM611 268v-258v0h258v0v258v0h-258v0zM876 268v-258v0h258v0v258v0h-258v0z" />
    <glyph glyph-name="w" unicode="w" horiz-adv-x="2452" 
d="M1667 8v258v0h-259v0v-258v0h259v0zM1401 8v258v0h-258v0v-258v0h258v0zM871 8v258v0h-259v0v-258v0h259v0zM605 8v258v0h-237h-7h7h-7h-14v0v-258h14h-14h14h244v0zM1932 273v259v0h-258v0v-259v0h258v0zM1136 273v259v0h-258v0v-259v0h258v0zM1932 539v258v0h-258v-7v7
v-7v-251v0h258v0zM1136 539v258v0h-258v0v-258v0h258v0zM1932 804v259v0h-258v0v-259v0h258v0zM1136 804v259v0h-258v0v-259v0h258v0zM1932 1070v258v0h-258v0v-258v0h258v0zM1136 1070v258v0h-258v0v-258v0h258v0zM338 540v258v0h-237h-7h7h-7h-14v-7v7v-7v-251h14h-14h14
h244v0zM338 805v259h-7h7h-7h-230h-7h7h-7h-14v0v-259h14h-14h14h244v0zM338 1071v258v0h-237h-7h7h-7h-14v0v-258h14h-14h14h244v0zM338 274v259v0h-237h-7h7h-7h-14v0v-259h14h-14h14h244v0zM338 540v258v0h-237h-7h7h-7h-14v-7v7v-7v-251h14h-14h14h244v0z" />
    <glyph glyph-name="x" unicode="x" horiz-adv-x="2185" 
d="M80 1330v-258v0h258v0v258v0h-258v0zM1407 1330v-258v0h237h7h-7h7h14v0v258h-14h14h-14h-244v0zM345 1065v-259h7h-7h7h252v0v259v0h-259v0zM1141 1065v-259v0h259v0v259v0h-259v0zM611 799v-258v0h258v0v258v0h-258v0zM876 799v-258v0h258v0v258v0h-258v0zM345 534
v-259h7h-7h7h252v0v259v0h-259v0zM1141 534v-259v0h259v7v-7v7v252v0h-259v0zM80 268v-258v0h258v0v258v0h-258v0zM1407 268v-258v0h237h7h-7h7h14v0v258h-14h14h-14h-244v0z" />
    <glyph glyph-name="y" unicode="y" horiz-adv-x="2185" 
d="M80 1330v-258v0h258v0v258v0h-258v0zM1407 1330v-258v0h237h7h-7h7h14v0v258h-14h14h-14h-244v0zM80 1065v-259v0h258v0v259v0h-258v0zM1407 1065v-259v0h237h7h-7h7h14v0v259h-14h14h-14h-244v0zM80 799v-258v0h258v7v-7v7v251v0h-258v0zM1141 799v-258v0h259v7v-7v7
v251v0h-259v0zM1407 799v-258v0h237h7h-7h7h14v7v-7v7v251h-14h14h-14h-244v0zM345 534v-259h7h-7h7h252v0v259v0h-259v0zM611 534v-259v0h258v7v-7v7v252v0h-258v0zM876 534v-259v0h258v0v259v0h-258v0zM1407 534v-259h7h-7h7h230h7h-7h7h14v0v259h-14h14h-14h-244v0z
M610 2v-258v0h258v0v258v0h-258v0zM1407 268v-258v0h237h7h-7h7h14v0v258h-14h14h-14h-244v0zM344 2v-258v0h258v0v258v0h-258v0zM1407 268v-258v0h237h7h-7h7h14v0v258h-14h14h-14h-244v0zM1407 268v-258v0h237h7h-7h7h14v0v258h-14h14h-14h-244v0zM1407 268v-258v0h237h7
h-7h7h14v0v258h-14h14h-14h-244v0zM1142 2v-258v0h258v0v258v0h-258v0zM876 2v-258v0h258v0v258v0h-258v0zM876 2v-258v0h258v0v258v0h-258v0zM876 2v-258v0h258v0v258v0h-258v0zM876 2v-258v0h258v0v258v0h-258v0zM876 2v-258v0h258v0v258v0h-258v0z" />
    <glyph glyph-name="z" unicode="z" horiz-adv-x="2185" 
d="M80 1330v-258v0h258v0v258v0h-258v0zM345 1330v-258v0h259v0v258v0h-259v0zM611 1330v-258v0h258v0v258v0h-258v0zM876 1330v-258v0h258v0v258v0h-258v0zM1141 1330v-258v0h259v0v258v0h-259v0zM1407 1330v-258v0h237h7h-7h7h14v0v258h-14h14h-14h-244v0zM1141 1065v-259
v0h259v0v259v0h-259v0zM611 799v-258v0h258v0v258v0h-258v0zM876 799v-258v0h258v0v258v0h-258v0zM345 534v-259h7h-7h7h252v0v259v0h-259v0zM80 268v-258v0h258v0v258v0h-258v0zM345 268v-258v0h259v0v258v0h-259v0zM611 268v-258v0h258v0v258v0h-258v0zM876 268v-258v0
h258v0v258v0h-258v0zM1141 268v-258h7h-7h7h252v0v258v0h-259v0zM1407 268v-258v0h237h7h-7h7h14v0v258h-14h14h-14h-244v0z" />
    <glyph glyph-name="braceleft" unicode="{" horiz-adv-x="2185" 
d="M611 1861v-258v0h258v0v258v0h-258v0zM345 1596v-259v0h259v7v-7v7v252v0h-259v0zM345 1330v-258v0h259v0v258v0h-259v0zM80 1065v-259v0h258v0v259v0h-258v0zM345 799v-258v0h259v0v258v0h-259v0zM345 534v-259h7h-7h7h252v0v259v0h-259v0zM611 268v-258v0h258v0v258v0
h-258v0z" />
    <glyph glyph-name="bar" unicode="|" horiz-adv-x="10828" 
d="M3436 1v1832h1256q373 0 480 -15q273 -36 369 -175t96 -496q0 -339 -79 -476q-54 -93 -150.5 -141t-264.5 -67q-120 -13 -446 -13h-702v-449h-559zM3995 907h698q191 1 233 5.5t76 21.5q43 23 59 69t16 144t-20 144t-71 66q-38 14 -293 18h-698v-468zM5868 1828h2030
v-431h-1480v-264h1405v-403h-1405v-294h1491v-440h-2041v1832zM8143 1815h2219v-467h-816v-1365h-586v1365h-817v467zM1340 2l2 387q-146 -40 -235 -49q-278 8 -411.5 176t-133.5 366q-11 206 113.5 364t350.5 211q150 41 323 -22v380q-166 47 -325 28q-401 -3 -658 -272.5
t-257 -688.5q0 -335 237 -600q277 -310 662 -316q221 0 332 36zM1343 432v445h468l383 -445h-851zM1343 1406v-445h468l383 445h-851z" />
    <glyph glyph-name="braceright" unicode="}" horiz-adv-x="2185" 
d="M337 1861v-258v0h-258v0v258v0h258v0zM603 1596v-259v0h-259v7v-7v7v252v0h259v0zM603 1330v-258v0h-259v0v258v0h259v0zM868 1065v-259v0h-258v0v259v0h258v0zM603 799v-258v0h-259v0v258v0h259v0zM603 534v-259h-7h7h-7h-252v0v259v0h259v0zM337 268v-258v0h-258v0v258
v0h258v0z" />
    <glyph glyph-name="asciitilde" unicode="~" horiz-adv-x="2373" 
d="M1202 61l2 370q-140 -38 -225 -46q-265 6 -392.5 166.5t-127.5 350.5q-11 196 108 347t335 201q144 40 308 -21v363q-158 45 -310 27q-383 -3 -628.5 -260t-245.5 -657q0 -320 226 -574q265 -296 633 -301q211 0 317 34zM1205 472v425h447l366 -425h-813zM1205 1402v-425
h447l366 425h-813z" />
    <glyph glyph-name="aacute" unicode="&#xe1;" 
 />
    <glyph glyph-name="agrave" unicode="&#xe0;" 
 />
    <glyph glyph-name="acircumflex" unicode="&#xe2;" 
 />
    <glyph glyph-name="adieresis" unicode="&#xe4;" 
 />
    <glyph glyph-name="atilde" unicode="&#xe3;" 
 />
    <glyph glyph-name="aring" unicode="&#xe5;" 
 />
    <glyph glyph-name="ccedilla" unicode="&#xe7;" 
 />
    <glyph glyph-name="eacute" unicode="&#xe9;" 
 />
    <glyph glyph-name="egrave" unicode="&#xe8;" 
 />
    <glyph glyph-name="ecircumflex" unicode="&#xea;" 
 />
    <glyph glyph-name="edieresis" unicode="&#xeb;" 
 />
    <glyph glyph-name="iacute" unicode="&#xed;" 
 />
    <glyph glyph-name="igrave" unicode="&#xec;" 
 />
    <glyph glyph-name="icircumflex" unicode="&#xee;" 
 />
    <glyph glyph-name="idieresis" unicode="&#xef;" 
 />
    <glyph glyph-name="ntilde" unicode="&#xf1;" 
 />
    <glyph glyph-name="oacute" unicode="&#xf3;" 
 />
    <glyph glyph-name="ograve" unicode="&#xf2;" 
 />
    <glyph glyph-name="ocircumflex" unicode="&#xf4;" 
 />
    <glyph glyph-name="odieresis" unicode="&#xf6;" 
 />
    <glyph glyph-name="otilde" unicode="&#xf5;" 
 />
    <glyph glyph-name="uacute" unicode="&#xfa;" 
 />
    <glyph glyph-name="ugrave" unicode="&#xf9;" 
 />
    <glyph glyph-name="ucircumflex" unicode="&#xfb;" 
 />
    <glyph glyph-name="udieresis" unicode="&#xfc;" 
 />
    <glyph glyph-name="dagger" unicode="&#x2020;" 
 />
    <glyph glyph-name="degree" unicode="&#xb0;" 
 />
    <glyph glyph-name="cent" unicode="&#xa2;" 
 />
    <glyph glyph-name="sterling" unicode="&#xa3;" 
 />
    <glyph glyph-name="section" unicode="&#xa7;" 
 />
    <glyph glyph-name="bullet" unicode="&#x2022;" horiz-adv-x="2185" 
d="M80 1861v-258v0h258v7v-7v7v251v0h-258v0zM345 1861v-258v0h259v7v-7v7v251v0h-259v0zM611 1861v-258v0h258v0v258v0h-258v0zM876 1861v-258h7h-7h7h251v0v258v0h-258v0zM1141 1861v-258h7h-7h7h252v0v258v0h-259v0zM1407 1861v-258h7h-7h7h230h7h-7h7h14v0v258h-14h14
h-14h-244v0zM80 1596v-259v0h258v0v259v0h-258v0zM345 1596v-259v0h259v7v-7v7v252v0h-259v0zM611 1596v-259v0h258v0v259v0h-258v0zM876 1596v-259v0h258v7v-7v7v252v0h-258v0zM1141 1596v-259v0h259v7v-7v7v252v0h-259v0zM1407 1596v-259v0h237h7h-7h7h14v0v259h-14h14
h-14h-244v0zM80 1330v-258v0h258v0v258v0h-258v0zM345 1330v-258v0h259v0v258v0h-259v0zM611 1330v-258v0h258v0v258v0h-258v0zM876 1330v-258v0h258v0v258v0h-258v0zM1141 1330v-258v0h259v0v258v0h-259v0zM1407 1330v-258v0h237h7h-7h7h14v0v258h-14h14h-14h-244v0z
M80 1065v-259v0h258v0v259v0h-258v0zM345 1065v-259h7h-7h7h252v0v259v0h-259v0zM611 1065v-259v0h258v0v259v0h-258v0zM876 1065v-259v0h258v0v259v0h-258v0zM1141 1065v-259v0h259v0v259v0h-259v0zM1407 1065v-259v0h237h7h-7h7h14v0v259h-14h14h-14h-244v0zM80 799v-258
v0h258v7v-7v7v251v0h-258v0zM345 799v-258v0h259v0v258v0h-259v0zM611 799v-258v0h258v0v258v0h-258v0zM876 799v-258v0h258v0v258v0h-258v0zM1141 799v-258v0h259v7v-7v7v251v0h-259v0zM1407 799v-258v0h237h7h-7h7h14v7v-7v7v251h-14h14h-14h-244v0zM80 534v-259v0h258v0
v259v0h-258v0zM345 534v-259h7h-7h7h252v0v259v0h-259v0zM611 534v-259v0h258v7v-7v7v252v0h-258v0zM876 534v-259v0h258v0v259v0h-258v0zM1141 534v-259v0h259v7v-7v7v252v0h-259v0zM1407 534v-259h7h-7h7h230h7h-7h7h14v0v259h-14h14h-14h-244v0zM80 268v-258v0h258v0v258
v0h-258v0zM345 268v-258v0h259v0v258v0h-259v0zM611 268v-258v0h258v0v258v0h-258v0zM876 268v-258v0h258v0v258v0h-258v0zM1141 268v-258h7h-7h7h252v0v258v0h-259v0zM1407 268v-258v0h237h7h-7h7h14v0v258h-14h14h-14h-244v0z" />
    <glyph glyph-name="paragraph" unicode="&#xb6;" 
 />
    <glyph glyph-name="germandbls" unicode="&#xdf;" 
 />
    <glyph glyph-name="copyright" unicode="&#xa9;" horiz-adv-x="2185" 
d="M345 1861v-258v0h259v7v-7v7v251v0h-259v0zM611 1861v-258v0h258v0v258v0h-258v0zM876 1861v-258h7h-7h7h251v0v258v0h-258v0zM1141 1861v-258h7h-7h7h252v0v258v0h-259v0zM80 1596v-259v0h258v0v259v0h-258v0zM1407 1596v-259v0h237h7h-7h7h14v0v259h-14h14h-14h-244v0z
M80 1330v-258v0h258v0v258v0h-258v0zM611 1330v-258v0h258v0v258v0h-258v0zM876 1330v-258v0h258v0v258v0h-258v0zM1407 1330v-258v0h237h7h-7h7h14v0v258h-14h14h-14h-244v0zM80 1065v-259v0h258v0v259v0h-258v0zM611 1065v-259v0h258v0v259v0h-258v0zM1407 1065v-259v0
h237h7h-7h7h14v0v259h-14h14h-14h-244v0zM80 799v-258v0h258v7v-7v7v251v0h-258v0zM611 799v-258v0h258v0v258v0h-258v0zM876 799v-258v0h258v0v258v0h-258v0zM1407 799v-258v0h237h7h-7h7h14v7v-7v7v251h-14h14h-14h-244v0zM80 534v-259v0h258v0v259v0h-258v0zM1407 534
v-259h7h-7h7h230h7h-7h7h14v0v259h-14h14h-14h-244v0zM345 268v-258v0h259v0v258v0h-259v0zM611 268v-258v0h258v0v258v0h-258v0zM876 268v-258v0h258v0v258v0h-258v0zM1141 268v-258h7h-7h7h252v0v258v0h-259v0z" />
    <glyph glyph-name="acute" unicode="&#xb4;" 
 />
    <glyph glyph-name="dieresis" unicode="&#xa8;" 
 />
    <glyph glyph-name="AE" unicode="&#xc6;" 
 />
    <glyph glyph-name="Oslash" unicode="&#xd8;" 
 />
    <glyph glyph-name="plusminus" unicode="&#xb1;" 
 />
    <glyph glyph-name="yen" unicode="&#xa5;" 
 />
    <glyph glyph-name="mu" unicode="&#xb5;" 
 />
    <glyph glyph-name="mu" unicode="&#x3bc;" 
 />
    <glyph glyph-name="ordfeminine" unicode="&#xaa;" 
 />
    <glyph glyph-name="ordmasculine" unicode="&#xba;" 
 />
    <glyph glyph-name="ae" unicode="&#xe6;" 
 />
    <glyph glyph-name="oslash" unicode="&#xf8;" 
 />
    <glyph glyph-name="questiondown" unicode="&#xbf;" 
 />
    <glyph glyph-name="exclamdown" unicode="&#xa1;" 
 />
    <glyph glyph-name="logicalnot" unicode="&#xac;" horiz-adv-x="2185" 
d="M80 1861v-258v0h258v7v-7v7v251v0h-258v0zM345 1861v-258v0h259v7v-7v7v251v0h-259v0zM611 1861v-258v0h258v0v258v0h-258v0zM876 1861v-258h7h-7h7h251v0v258v0h-258v0zM1141 1861v-258h7h-7h7h252v0v258v0h-259v0zM1407 1861v-258h7h-7h7h230h7h-7h7h14v0v258h-14h14
h-14h-244v0zM80 1596v-259v0h258v0v259v0h-258v0zM345 1596v-259v0h259v7v-7v7v252v0h-259v0zM611 1596v-259v0h258v0v259v0h-258v0zM876 1596v-259v0h258v7v-7v7v252v0h-258v0zM1141 1596v-259v0h259v7v-7v7v252v0h-259v0zM1407 1596v-259v0h237h7h-7h7h14v0v259h-14h14
h-14h-244v0zM80 1330v-258v0h258v0v258v0h-258v0zM345 1330v-258v0h259v0v258v0h-259v0zM611 1330v-258v0h258v0v258v0h-258v0zM876 1330v-258v0h258v0v258v0h-258v0zM1141 1330v-258v0h259v0v258v0h-259v0zM1407 1330v-258v0h237h7h-7h7h14v0v258h-14h14h-14h-244v0z
M80 1065v-259v0h258v0v259v0h-258v0zM345 1065v-259h7h-7h7h252v0v259v0h-259v0zM611 1065v-259v0h258v0v259v0h-258v0zM876 1065v-259v0h258v0v259v0h-258v0zM1141 1065v-259v0h259v0v259v0h-259v0zM1407 1065v-259v0h237h7h-7h7h14v0v259h-14h14h-14h-244v0zM80 799v-258
v0h258v7v-7v7v251v0h-258v0zM345 799v-258v0h259v0v258v0h-259v0zM611 799v-258v0h258v0v258v0h-258v0zM876 799v-258v0h258v0v258v0h-258v0zM1141 799v-258v0h259v7v-7v7v251v0h-259v0zM1407 799v-258v0h237h7h-7h7h14v7v-7v7v251h-14h14h-14h-244v0zM80 534v-259v0h258v0
v259v0h-258v0zM345 534v-259h7h-7h7h252v0v259v0h-259v0zM611 534v-259v0h258v7v-7v7v252v0h-258v0zM876 534v-259v0h258v0v259v0h-258v0zM1141 534v-259v0h259v7v-7v7v252v0h-259v0zM1407 534v-259h7h-7h7h230h7h-7h7h14v0v259h-14h14h-14h-244v0zM80 268v-258v0h258v0v258
v0h-258v0zM345 268v-258v0h259v0v258v0h-259v0zM611 268v-258v0h258v0v258v0h-258v0zM876 268v-258v0h258v0v258v0h-258v0zM1141 268v-258h7h-7h7h252v0v258v0h-259v0zM1407 268v-258v0h237h7h-7h7h14v0v258h-14h14h-14h-244v0z" />
    <glyph glyph-name="florin" unicode="&#x192;" 
 />
    <glyph glyph-name="guillemotleft" unicode="&#xab;" 
 />
    <glyph glyph-name="guillemotright" unicode="&#xbb;" 
 />
    <glyph glyph-name="ellipsis" unicode="&#x2026;" 
 />
    <glyph glyph-name="nonbreakingspace" unicode="&#xa0;" 
 />
    <glyph glyph-name="Agrave" unicode="&#xc0;" 
 />
    <glyph glyph-name="Atilde" unicode="&#xc3;" 
 />
    <glyph glyph-name="Otilde" unicode="&#xd5;" 
 />
    <glyph glyph-name="OE" unicode="&#x152;" 
 />
    <glyph glyph-name="oe" unicode="&#x153;" 
 />
    <glyph glyph-name="endash" unicode="&#x2013;" 
 />
    <glyph glyph-name="emdash" unicode="&#x2014;" 
 />
    <glyph glyph-name="quotedblleft" unicode="&#x201c;" 
 />
    <glyph glyph-name="quotedblright" unicode="&#x201d;" 
 />
    <glyph glyph-name="quoteleft" unicode="&#x2018;" 
 />
    <glyph glyph-name="quoteright" unicode="&#x2019;" 
 />
    <glyph glyph-name="divide" unicode="&#xf7;" 
 />
    <glyph glyph-name="ydieresis" unicode="&#xff;" 
 />
    <glyph glyph-name="Ydieresis" unicode="&#x178;" 
 />
    <glyph glyph-name="currency" unicode="&#xa4;" 
 />
    <glyph glyph-name="guilsinglleft" unicode="&#x2039;" 
 />
    <glyph glyph-name="guilsinglright" unicode="&#x203a;" 
 />
    <glyph glyph-name="daggerdbl" unicode="&#x2021;" 
 />
    <glyph glyph-name="periodcentered" unicode="&#xb7;" 
 />
    <glyph glyph-name="periodcentered" unicode="&#x2219;" 
 />
    <glyph glyph-name="quotesinglbase" unicode="&#x201a;" 
 />
    <glyph glyph-name="quotedblbase" unicode="&#x201e;" 
 />
    <glyph glyph-name="perthousand" unicode="&#x2030;" 
 />
    <glyph glyph-name="Acircumflex" unicode="&#xc2;" 
 />
    <glyph glyph-name="Ecircumflex" unicode="&#xca;" 
 />
    <glyph glyph-name="Aacute" unicode="&#xc1;" 
 />
    <glyph glyph-name="Edieresis" unicode="&#xcb;" 
 />
    <glyph glyph-name="Egrave" unicode="&#xc8;" 
 />
    <glyph glyph-name="Iacute" unicode="&#xcd;" 
 />
    <glyph glyph-name="Icircumflex" unicode="&#xce;" 
 />
    <glyph glyph-name="Idieresis" unicode="&#xcf;" 
 />
    <glyph glyph-name="Igrave" unicode="&#xcc;" 
 />
    <glyph glyph-name="Oacute" unicode="&#xd3;" 
 />
    <glyph glyph-name="Ocircumflex" unicode="&#xd4;" 
 />
    <glyph glyph-name="Ograve" unicode="&#xd2;" 
 />
    <glyph glyph-name="Uacute" unicode="&#xda;" 
 />
    <glyph glyph-name="Ucircumflex" unicode="&#xdb;" 
 />
    <glyph glyph-name="Ugrave" unicode="&#xd9;" 
 />
    <glyph glyph-name="circumflex" unicode="&#x2c6;" 
 />
    <glyph glyph-name="tilde" unicode="&#x2dc;" 
 />
    <glyph glyph-name="macron" unicode="&#xaf;" 
 />
    <glyph glyph-name="macron" unicode="&#x2c9;" 
 />
    <glyph glyph-name="cedilla" unicode="&#xb8;" 
 />
    <glyph glyph-name="Scaron" unicode="&#x160;" 
 />
    <glyph glyph-name="scaron" unicode="&#x161;" 
 />
    <glyph glyph-name="brokenbar" unicode="&#xa6;" 
 />
    <glyph glyph-name="Eth" unicode="&#xd0;" 
 />
    <glyph glyph-name="eth" unicode="&#xf0;" 
 />
    <glyph glyph-name="Yacute" unicode="&#xdd;" 
 />
    <glyph glyph-name="yacute" unicode="&#xfd;" 
 />
    <glyph glyph-name="Thorn" unicode="&#xde;" 
 />
    <glyph glyph-name="thorn" unicode="&#xfe;" 
 />
    <glyph glyph-name="minus" unicode="&#xad;" 
 />
    <glyph glyph-name="minus" unicode="&#x2212;" 
 />
    <glyph glyph-name="multiply" unicode="&#xd7;" 
 />
    <glyph glyph-name="onesuperior" unicode="&#xb9;" 
 />
    <glyph glyph-name="twosuperior" unicode="&#xb2;" 
 />
    <glyph glyph-name="threesuperior" unicode="&#xb3;" 
 />
    <glyph glyph-name="onehalf" unicode="&#xbd;" 
 />
    <glyph glyph-name="onequarter" unicode="&#xbc;" 
 />
    <glyph glyph-name="threequarters" unicode="&#xbe;" 
 />
    <glyph glyph-name="Lslash" unicode="&#x141;" 
 />
    <glyph glyph-name="lslash" unicode="&#x142;" 
 />
    <glyph glyph-name="Zcaron" unicode="&#x17d;" 
 />
    <glyph glyph-name="zcaron" unicode="&#x17e;" 
 />
    <glyph glyph-name="notequal" unicode="&#x2260;" 
 />
    <glyph glyph-name="infinity" unicode="&#x221e;" 
 />
    <glyph glyph-name="lessequal" unicode="&#x2264;" 
 />
    <glyph glyph-name="greaterequal" unicode="&#x2265;" 
 />
    <glyph glyph-name="partialdiff" unicode="&#x2202;" 
 />
    <glyph glyph-name="summation" unicode="&#x2211;" 
 />
    <glyph glyph-name="product" unicode="&#x220f;" 
 />
    <glyph glyph-name="pi" unicode="&#x3c0;" 
 />
    <glyph glyph-name="integral" unicode="&#x222b;" 
 />
    <glyph glyph-name="Omega" unicode="&#x3a9;" 
 />
    <glyph glyph-name="Omega" unicode="&#x2126;" 
 />
    <glyph glyph-name="radical" unicode="&#x221a;" 
 />
    <glyph glyph-name="approxequal" unicode="&#x2248;" 
 />
    <glyph glyph-name="approxequal" unicode="&#x22f2;" 
 />
    <glyph glyph-name="Delta" unicode="&#x394;" 
 />
    <glyph glyph-name="Delta" unicode="&#x2206;" 
 />
    <glyph glyph-name="lozenge" unicode="&#x25ca;" 
 />
    <glyph glyph-name="fraction" unicode="&#x2044;" 
 />
    <glyph glyph-name="fi" unicode="&#xf001;" 
 />
    <glyph glyph-name="fl" unicode="&#xf002;" 
 />
    <glyph glyph-name="apple" unicode="&#xf000;" 
 />
    <glyph glyph-name="dotlessi" unicode="&#x131;" 
 />
    <glyph glyph-name="breve" unicode="&#x2d8;" 
 />
    <glyph glyph-name="dotaccent" unicode="&#x2d9;" 
 />
    <glyph glyph-name="ring" unicode="&#x2da;" 
 />
    <glyph glyph-name="hungarumlaut" unicode="&#x2dd;" 
 />
    <glyph glyph-name="ogonek" unicode="&#x2db;" 
 />
    <glyph glyph-name="caron" unicode="&#x2c7;" 
 />
  </font>
</defs>
</svg>
